<?xml version="1.0" ?><svg viewBox="0 0 64 64" xmlns="http://www.w3.org/2000/svg"><defs><style>.cls-1{fill:#22b573;}.cls-1,.cls-4{stroke:#004924;}.cls-1,.cls-2,.cls-3,.cls-4{stroke-miterlimit:10;stroke-width:2px;}.cls-2{fill:#8c6239;}.cls-2,.cls-3{stroke:#42210b;}.cls-3{fill:#c69c6d;}.cls-4{fill:none;stroke-linecap:round;}.cls-5{fill:#33d186;}</style></defs><title/><g data-name="Layer 31" id="Layer_31"><circle class="cls-1" cx="20.63" cy="15.17" r="7.17"/><polygon class="cls-2" points="21.82 57.34 46.44 57.34 49.99 47.78 18.27 47.78 21.82 57.34"/><path class="cls-1" d="M18.63,18.09H48.38a0,0,0,0,1,0,0v9.63A14.87,14.87,0,0,1,33.5,42.59h0A14.87,14.87,0,0,1,18.63,27.71V18.09A0,0,0,0,1,18.63,18.09Z" transform="translate(67.01 60.68) rotate(-180)"/><rect class="cls-3" height="5.37" rx="1.9" ry="1.9" transform="translate(68.26 90.3) rotate(-180)" width="38.25" x="15" y="42.46"/><line class="cls-4" x1="37.44" x2="41.57" y1="20.84" y2="17.09"/><line class="cls-4" x1="15.26" x2="10.75" y1="14.77" y2="10.66"/><line class="cls-4" x1="44.84" x2="48.96" y1="27.08" y2="23.33"/><line class="cls-4" x1="47.44" x2="51.57" y1="36.84" y2="33.09"/><line class="cls-4" x1="21.1" x2="16.28" y1="30.17" y2="26.64"/><line class="cls-4" x1="20.91" x2="16.48" y1="38.41" y2="34.4"/><circle class="cls-5" cx="28.38" cy="24.34" r="1.75"/><circle class="cls-5" cx="33.38" cy="30.34" r="1.75"/><circle class="cls-5" cx="39.38" cy="26.34" r="1.75"/><circle class="cls-5" cx="28.38" cy="37.34" r="1.75"/><circle class="cls-5" cx="40.38" cy="36.34" r="1.75"/><line class="cls-4" x1="26.37" x2="29.35" y1="12.97" y2="10.25"/><circle class="cls-5" cx="19.74" cy="17.98" r="1.39"/><circle class="cls-5" cx="21.74" cy="12.98" r="1.39"/></g></svg>