<?xml version="1.0" ?><svg viewBox="0 0 64 64" xmlns="http://www.w3.org/2000/svg"><defs><style>.cls-1{fill:#8c6239;}.cls-1,.cls-3{stroke:#42210b;}.cls-1,.cls-2,.cls-3,.cls-4{stroke-miterlimit:10;stroke-width:2px;}.cls-2{fill:#22b573;}.cls-2,.cls-4{stroke:#004924;}.cls-3{fill:#c69c6d;}.cls-4{fill:none;stroke-linecap:round;}.cls-5{fill:#33d186;}</style></defs><title/><g data-name="Layer 10" id="Layer_10"><polygon class="cls-1" points="19.7 56.34 44.3 56.34 47.86 46.78 16.14 46.78 19.7 56.34"/><path class="cls-2" d="M17.25,17.09h25.5a0,0,0,0,1,0,0V28.84A12.75,12.75,0,0,1,30,41.59h0A12.75,12.75,0,0,1,17.25,28.84V17.09A0,0,0,0,1,17.25,17.09Z" transform="translate(60 58.68) rotate(-180)"/><path class="cls-2" d="M37,41.59h8.33l2.52-6.08c2-4.78-.38-11.4-6.68-11.4h0c-6.3,0-8.67,6.62-6.68,11.4Z"/><rect class="cls-3" height="5.38" rx="1.9" ry="1.9" transform="translate(64 88.3) rotate(-180)" width="38.25" x="12.88" y="41.46"/><line class="cls-4" x1="37.31" x2="41.44" y1="20.84" y2="17.09"/><line class="cls-4" x1="27.13" x2="22.62" y1="19.77" y2="15.66"/><line class="cls-4" x1="45.31" x2="49.44" y1="27.84" y2="24.09"/><line class="cls-4" x1="45.92" x2="50.83" y1="35.28" y2="32.65"/><line class="cls-4" x1="19.02" x2="16.11" y1="27.01" y2="21.79"/><line class="cls-4" x1="18.78" x2="14.35" y1="37.41" y2="33.4"/><circle class="cls-5" cx="24.25" cy="24.34" r="1.75"/><circle class="cls-5" cx="28.25" cy="30.34" r="1.75"/><circle class="cls-5" cx="41.25" cy="29.34" r="1.75"/><circle class="cls-5" cx="24.25" cy="36.34" r="1.75"/><circle class="cls-5" cx="40.25" cy="35.34" r="1.75"/><circle class="cls-5" cx="33.25" cy="23.34" r="1.75"/><line class="cls-4" x1="35.79" x2="31.69" y1="30.43" y2="26.73"/></g></svg>