<?xml version="1.0" ?><svg viewBox="0 0 64 64" xmlns="http://www.w3.org/2000/svg"><defs><style>.cls-1{fill:#22b573;}.cls-1,.cls-4{stroke:#004924;}.cls-1,.cls-2,.cls-3,.cls-4{stroke-miterlimit:10;stroke-width:2px;}.cls-2{fill:#8c6239;}.cls-2,.cls-3{stroke:#42210b;}.cls-3{fill:#c69c6d;}.cls-4{fill:none;stroke-linecap:round;}.cls-5{fill:#33d186;}</style></defs><title/><g data-name="Layer 25" id="Layer_25"><path class="cls-1" d="M40.53,28.5l-6.45-2.72.61-10.08c.34-5.58,5.38-11,11.05-8.61h0c5.67,2.39,5.32,9.78,1.57,13.92Z"/><path class="cls-1" d="M22.62,33.5l6.45-2.72L28.46,20.7c-.34-5.58-5.38-11-11.05-8.61h0c-5.67,2.39-5.32,9.78-1.57,13.92Z"/><polygon class="cls-2" points="45.93 58.08 21.32 58.08 17.76 48.52 49.49 48.52 45.93 58.08"/><path class="cls-1" d="M33.63,18.83h0A12.75,12.75,0,0,1,46.38,31.58V43.33a0,0,0,0,1,0,0H20.88a0,0,0,0,1,0,0V31.58A12.75,12.75,0,0,1,33.63,18.83Z"/><rect class="cls-3" height="5.38" rx="1.9" ry="1.9" width="38.25" x="14.5" y="43.21"/><line class="cls-4" x1="18.33" x2="18.17" y1="13.54" y2="7.96"/><line class="cls-4" x1="47.86" x2="53.65" y1="18.46" y2="16.54"/><line class="cls-4" x1="15.65" x2="10.35" y1="21.9" y2="20.18"/><line class="cls-4" x1="21.71" x2="16.8" y1="39.07" y2="36.43"/><line class="cls-4" x1="45.61" x2="48.52" y1="31.8" y2="26.58"/><line class="cls-4" x1="44.85" x2="49.28" y1="39.19" y2="35.18"/><circle class="cls-5" cx="43.38" cy="11.13" r="1.75"/><circle class="cls-5" cx="38.38" cy="30.13" r="1.75"/><circle class="cls-5" cx="28.38" cy="30.13" r="1.75"/><circle class="cls-5" cx="39.38" cy="38.13" r="1.75"/><circle class="cls-5" cx="28.38" cy="39.13" r="1.75"/><circle class="cls-5" cx="34.38" cy="25.13" r="1.75"/><line class="cls-4" x1="25.84" x2="29.93" y1="16.22" y2="12.51"/><circle class="cls-5" cx="19.38" cy="22.13" r="1.75"/><circle class="cls-5" cx="22.38" cy="17.13" r="1.75"/><line class="cls-4" x1="38.71" x2="33.8" y1="10.07" y2="7.43"/><line class="cls-4" x1="48.19" x2="53.32" y1="12.15" y2="8.85"/><circle class="cls-5" cx="44.38" cy="16.13" r="1.75"/></g></svg>