<?xml version="1.0" encoding="utf-8"?>
<!-- Generator: Adobe Illustrator 24.0.2, SVG Export Plug-In . SVG Version: 6.00 Build 0)  -->
<svg version="1.1" id="Layer_1" xmlns="http://www.w3.org/2000/svg" xmlns:xlink="http://www.w3.org/1999/xlink" x="0px" y="0px"
	 viewBox="0 0 512 512" style="enable-background:new 0 0 512 512;" xml:space="preserve">
<style type="text/css">
	.st0{fill-rule:evenodd;clip-rule:evenodd;fill:#FFEFEC;}
	.st1{fill-rule:evenodd;clip-rule:evenodd;fill:#2A4235;}
	.st2{fill-rule:evenodd;clip-rule:evenodd;fill:#3C4742;}
	.st3{fill-rule:evenodd;clip-rule:evenodd;fill:#61846F;}
	.st4{fill-rule:evenodd;clip-rule:evenodd;fill:#FFC25F;}
	.st5{fill-rule:evenodd;clip-rule:evenodd;fill:#CE514A;}
</style>
<g transform="matrix(1,0,0,1,274.085,-4.34471)">
	
		<ellipse transform="matrix(0.7071 -0.7071 0.7071 0.7071 -189.1575 63.4431)" class="st0" cx="-17.9961" cy="260.0549" rx="249.4082" ry="249.4081"/>
</g>
<path class="st1" d="M298.85,107.2898c2.2518,0.9826,0.4364,3.8195-0.5757,6.1755
	c-44.8727,105.2999-45.9805,225.3645-47.57,339.4829l-0.0785,5.6105c-0.296,1.8602-3.0509,2.5533-3.3865-0.05
	c1.6975-118.3765,1.9063-239.785,48.4821-347.6754C296.3868,109.2892,296.1032,106.9387,298.85,107.2898z"/>
<g transform="matrix(1,0,0,1,-0.419632,-0.0477378)">
	<path class="st1" d="M236.917,150.4069c2.8262,0.6316,3.1324,2.1237,3.7657,3.4911c2.9108,6.2861,4.5681,16.4024,4.5681,16.4024
		c11.4769,46.1253,14.4082,94.944,10.4729,141.9366l-0.8434,1.7966c0,0-0.1038-20.8134-0.7158-36.0334
		c-1.2419-30.8524-4.6369-61.5784-9.2276-92.225c-1.8226-11.4453-3.4595-15.8165-5.236-26.371
		C238.0401,150.008,236.3388,150.304,236.917,150.4069z"/>
</g>
<g transform="matrix(1,0,0,1,0.254081,13.4553)">
	<path class="st2" d="M179.7958,252.5024c2.4321,6.8947,4.0378,13.8923,7.1231,21.1025c0,0,10.8551,24.2622,19.8777,44.9727
		c14.7767,34.2701,33.5812,77.2809,41.1391,111.6936l1.4746,9.4189c2.9898,7.2513-0.4791,1.7722-0.4791,1.7722
		c-10.8427-21.1807-19.4964-58.61-34.0847-92.7631c-13.1167-30.7111-31.2701-60.1798-36.1691-91.4768
		C177.3745,249.4567,178.097,251.5855,179.7958,252.5024z M249.0696,441.7887 M249.5283,441.0896 M249.8528,441.0704
		 M249.5304,439.9733"/>
</g>
<g transform="matrix(1,0,0,1,0.254081,13.4553)">
	<path class="st3" d="M182.2881,261.4875c-0.3651-0.468,2.5021,7.9836-12.0854-7.9567
		c-9.7191-10.6177-18.758-25.6326-13.4678-38.7067c0,0,0.8618-3.4458,8.9287,3.6799c10.2918,9.2614,17.7314,23.0844,16.5455,35.3501
		C182.9171,257.2896,183.2742,260.6005,182.2881,261.4875z"/>
</g>
<g transform="matrix(1.3646,0,0,1.3646,85.0034,132.63)">
	<path class="st3" d="M34.0289,108.3532c-0.7329-0.4494-0.9129-0.8625,0.0325-2.2366c1.1357-1.653,3.393-1.0571,5.5673-1.0014
		c10.0881,0.3574,18.503,7.2018,26.0637,14.0385c11.8372,10.5817,6.8006,5.981,12.4305,7.8521
		c8.4327,4.9605-4.4088,0.4172-4.4088,0.4172c-14.604-1.4586-22.4517-2.7089-29.6855-9.0776
		c-3.3063-2.257-6.5634-5.2287-9.5211-9.1502C34.2983,108.8439,34.145,108.5698,34.0289,108.3532z"/>
</g>
<g transform="matrix(1,0,0,1,0.254081,13.4553)">
	<path class="st3" d="M171.3724,308.5424c10.2705,0.3079,19.9336,5.9253,29.6609,9.1063c0.3702,0.12,6.6649,3.1982,2.7741,2.4303
		c0,0-24.6158,6.6427-36.7803,4.4135c-4.1107-0.752-5.643-1.3328-13.1821-4.7437c-8.1374-3.6111-8.5097-2.6195,3.0269-8.3321
		C156.8719,311.4169,164.5336,308.4233,171.3724,308.5424z M152.622,319.2301 M152.584,319.2105 M151.3682,315.906"/>
</g>
<g transform="matrix(1,0,0,1,0.254081,13.4553)">
	<path class="st3" d="M218.0793,364.1068c-17.3428,1.5254-27.5343,8.8796-41.5598,3.413
		c-22.5344-8.7873-12.5526-9.2994-6.1247-12.3869c8.4192-3.9314,17.6994-5.6895,26.8194-5.0216
		c12.2084,0.8938,25.8731,11.4453,25.8731,11.4453c2.365,4.967-4.6881,2.5311-4.6211,2.532
		C218.2749,364.0952,218.2749,364.0952,218.0793,364.1068z M166.4574,360.8181 M166.5292,360.81"/>
</g>
<g transform="matrix(1,0,0,1,0.254081,13.4553)">
	<path class="st3" d="M245.2924,327.3073c6.1375,1.7449-1.5536,18.8242-6.4168,25.1782
		c-6.4245,8.4017-20.6298,14.9291-16.9196,9.4313c0,0,0.3318-10.2752,4.8726-17.4303
		C232.4537,335.6296,242.7908,326.8034,245.2924,327.3073z M225.0619,363.5315"/>
</g>
<g transform="matrix(1,0,0,1,0.254081,13.4553)">
	<path class="st3" d="M237.4241,284.1034l0.2618,0.0564l0.2938,0.114c0,0,2.1702,8.8518-3.9412,15.4168
		c-7.0757,7.6049-18.1982,10.4281-25.6151,16.9213c-0.3672,0.3194-15.2229,11.1732,2.7472-12.0376
		c6.3446-8.1976,14.7528-14.2471,23.895-19.642C235.8256,284.4711,236.2138,284.0236,237.4241,284.1034z"/>
</g>
<g transform="matrix(1.3646,0,0,1.3646,85.0034,132.63)">
	<path class="st3" d="M103.8172,81.8698c0,0,1.1476,0.1314-0.1715,4.5531c0.2516,1.7162-0.1875,0.4122-0.6215,2.3759
		c-2.783,13.5065-7.025,26.9534-18.589,35.8286c-9.1177,7.0025-5.2393,4.3737-5.767,2.9301
		c-0.9448-2.5849,1.3488-2.8566,1.9475-5.6146c3.1219-15.1519,6.6933-30.0444,22.1766-39.7827
		C103.5427,81.718,103.3455,81.8298,103.8172,81.8698z M88.7591,99.7187c-0.7232,1.1773-0.91,1.5563-0.1277,0.2463
		c0.0489-0.0804,0.0976-0.1609,0.1512-0.2363l-0.0188-0.0097L88.7591,99.7187z"/>
</g>
<g transform="matrix(1.68339,-0.20755,0.20755,1.68339,-232.892,-71.15)">
	<path class="st4" d="M262.3611,136.6653c0.4166-1.2472,2.4682-5.4391,4.9693-5.0115c6.8271,1.1649,4.7021,7.4928,6.0272,6.9081
		c3.7235-1.51,8.0891,1.784,8.0646,6.0961c-0.0614,10.3843-7.8553,18.0222-14.5853,29.5554
		c-1.7231,2.9535-2.3882,9.5122-3.2788,11.6746c-1.2455,3.0302-3.2819,2.358-4.0121-0.9493c0,0-1.2079-6.4846-3.6675-10.4526
		c-2.126-1.7106-3.98-2.9075-3.98-2.9075c-5.3309-3.2035-11.754-3.8282-16.3895-13.0135c-2.0022-3.9681-0.3848-9.9751,3.1641-9.3259
		c0,0-2.1059-13.1013,5.5685-13.2825c3.9088-0.0929,2.8277,6.4946,8.4972-1.5133
		C254.9991,131.2571,259.4068,132.6275,262.3611,136.6653z"/>
</g>
<g transform="matrix(1.39211,0.968976,-0.968976,1.39211,181.462,-561.983)">
	<path class="st4" d="M283.9804,259.3901c2.0623-6.112,10.4254-10.8786,13.7438-0.92c0.5616-0.201,1.222-0.4638,1.9985-0.8018
		c2.8183-1.2122,6.9187-0.3002,5.9437,3.813c0,0,4.9572-1.3347,6.443,1.6343c1.2686,2.5432-3.2245,4.8623,1.9172,5.2379
		c1.2059,0.1644,6.5301,0.2249,3.1818,6.1574c-2.5095,4.4505-8.7409,7.2053-18.0207,12.5693
		c-8.8748,5.1254-13.8598,12.658-14.1038,10.7234c-2.8777-3.7994-22.9703-31.2434-10.6466-40.5962
		C277.3186,255.022,281.4851,257.3737,283.9804,259.3901z"/>
</g>
<g transform="matrix(1.7367,-0.194512,0.194512,1.7367,-492.068,-57.7431)">
	<path class="st5" d="M388.4916,158.3602c1.9295,1.5331,3.7738,3.1629,5.5155,4.9066c4.9624,4.9681,9.9286,14.7135,7.2717,10.858
		c-3.883-5.4903-8.3976-10.5359-13.4698-14.9436C387.809,159.1813,388.2292,158.1538,388.4916,158.3602z"/>
	<path class="st5" d="M395.3578,157.0883c3.264,1.5038,6.5214,10.6063,6.5214,10.6063l-7.0967-9.459
		C393.442,156.0547,394.8756,156.8683,395.3578,157.0883z"/>
	<path class="st5" d="M403.0662,158.8878c1.1898,2.2032,1.5063,5.8779,1.5063,5.8779l-2.7912-5.6488
		C401.7813,159.1169,402.777,158.3631,403.0662,158.8878z"/>
	<path class="st5" d="M416.9003,155.8427c-0.3238,0.4213-0.6441,0.846-0.9545,1.2814c-3.6583,5.1669-6.0219,11.1037-7.7451,17.1788
		c0,0-1.3262,1.6185-0.2558-2.0848c1.7777-5.9731,4.2333-11.7653,7.917-16.7573
		C415.8619,155.4608,416.6958,154.3137,416.9003,155.8427z"/>
	<path class="st5" d="M411.8473,151.5713c-0.4481,2.7102-1.8358,6.3844-1.8358,6.3844S410.5899,149.4402,411.8473,151.5713z"/>
	<path class="st5" d="M404.8612,146.4688c0.1393,1.94,0.0708,4.7117,0.0708,4.7117S403.2062,145.0338,404.8612,146.4688z"/>
	<path class="st5" d="M397.632,147.7074c0.9151,1.672,1.3617,4.315,1.3617,4.315S395.5844,147.1048,397.632,147.7074z"/>
	<path class="st5" d="M382.7845,162.0166c2.067,0.7425,4.3057,2.8669,4.3057,2.8669l-5.2728-2.6472
		C381.8174,162.2363,382.333,161.8632,382.7845,162.0166z"/>
</g>
<g transform="matrix(1.26466,0.980792,-0.980792,1.26466,68.6781,-670.595)">
	<path class="st5" d="M403.2072,277.0136c0,0,4.2629,8.1601,6.61,17.9266c0,0,1.1886,6.5824-2.2823-3.9408
		C404.8381,282.9704,400.9049,276.3723,403.2072,277.0136z"/>
	<path class="st5" d="M407.9379,274.6874c1.2724,2.5328,2.0319,6.7202,2.0319,6.7202S405.5924,273.8885,407.9379,274.6874z"/>
	<path class="st5" d="M413.066,291.2689c0.9,4.3537,2.5267,15.3633-1.0336,0.2296
		C412.0324,291.4984,411.841,290.4862,413.066,291.2689z"/>
	<path class="st5" d="M415.3271,275.1552c0.7609,7.1765,0.1106,16.302-0.0481,12.1059
		C414.9826,281.0167,413.5092,273.6202,415.3271,275.1552z"/>
	<path class="st5" d="M420.1338,288.3937c-1.0402,5.701-5.5455,20.5389-1.0488-0.1584
		C419.085,288.2353,419.3206,287.1701,420.1338,288.3937z"/>
	<path class="st5" d="M423.8109,271.9306l-0.7256,8.7788c-3.9777,4.5511-0.6024-5.3726-0.6024-5.3726
		C423.4015,271.4916,423.8109,271.9306,423.8109,271.9306z"/>
	<path class="st5" d="M430.1848,282.3459c-1.6636,2.7345,0.2411-0.967-4.0387,7.3021c-3.5977,6.7461-2.9966,3.3678-2.9966,3.3678
		C424.8772,288.0651,429.8483,280.0503,430.1848,282.3459z"/>
	<path class="st5" d="M432.7143,288.6964l-4.0327,3.0664C428.6816,291.7628,431.0001,288.4341,432.7143,288.6964z"/>
</g>
</svg>
