<?xml version="1.0" encoding="utf-8"?>
<!-- Generator: Adobe Illustrator 24.0.2, SVG Export Plug-In . SVG Version: 6.00 Build 0)  -->
<svg version="1.1" id="Layer_1" xmlns="http://www.w3.org/2000/svg" xmlns:xlink="http://www.w3.org/1999/xlink" x="0px" y="0px"
	 viewBox="0 0 512 512" style="enable-background:new 0 0 512 512;" xml:space="preserve">
<style type="text/css">
	.st0{fill-rule:evenodd;clip-rule:evenodd;fill:#FFEFEC;}
	.st1{fill-rule:evenodd;clip-rule:evenodd;fill:#515E46;}
	.st2{fill-rule:evenodd;clip-rule:evenodd;fill:#FFC04A;}
</style>
<g transform="matrix(-1,1.22465e-16,-1.22465e-16,-1,359.425,367.897)">
	
		<ellipse transform="matrix(0.7071 -0.7071 0.7071 0.7071 -49.0616 105.9286)" class="st0" cx="103.3363" cy="112.1869" rx="249.9999" ry="249.9998"/>
</g>
<g transform="matrix(1.02348,0,0,1.05056,-2.41146,-18.2597)">
	<path class="st1" d="M252.9369,374.6788c-0.5148-49.3257,0.8976-98.7808-6.9286-147.5081
		c-3.0704-19.0856-5.9883-38.2121-6.688-57.5538c0,0,1.521-6.7304,2.9493-5.4402l2.6705,4.4506
		c4.8228,48.6481,13.6971,95.2574,13.1655,148.6252c-0.1979,17.0811-0.3832,34.071-0.3379,51.0717
		c0.9751-4.6062,2.0991-9.2001,3.2721-14.0342c8.6957-35.8191,21.7182-72.623,45.5661-97.3665c0,0,6.9831-7.3634,6.815-3.4781
		c0,0-27.3719,42.8084-38.4597,73.0093c-9.2796,25.2659-15.3568,52.0208-16.6489,78.6031
		c0.5211,17.7309,1.474,35.5463,3.1103,53.5618c0.5462,5.7563,0.4968,7.4664,0.4968,7.4664l-0.9709,1.5708
		c0,0-4.9926-21.6424-6.2876-41.3867c-0.7944-12.0628-1.2355-24.155-1.4849-36.2549c-1.2816-5.3189-2.7267-10.6929-4.1499-14.6836
		c-7.1202-19.9539-19.9109-37.9115-37.3022-50.72c0,0-2.6227-3.5512-0.9852-3.2265c7.5411,0.9063,7.7822,3.4258,11.0253,5.9671
		C236.9919,339.3024,247.3012,355.962,252.9369,374.6788z"/>
</g>
<g transform="matrix(0.676434,0.499648,-0.499648,0.676434,236.281,70.6551)">
	<path class="st2" d="M204.9538,68.2357c-0.9157-19.5869-3.2555-39.9226,2.5725-58.714c1.4094-4.5368,3.763-9.6143,9.9211-9.5376
		c10.3973,0.4907,11.2285,14.2903,11.8915,22.1944c1.0789,12.7901-0.6928,25.4816-3.8888,37.9939
		c4.3206-13.1762,9.1099-26.0624,18.3683-36.3701c2.9275-3.2579,6.1454-6.3236,11.2451-6.2878
		c11.5741,0.4289,8.2077,18.9668,4.99,26.6915c-3.9105,9.3725-9.8888,17.815-16.3685,25.7626c0,0-0.9491,1.1539-1.9263,2.682
		c-1.7628,2.723-3.5934,5.4084-5.4917,8.0374c6.182-5.8267,15.0448-13.8061,22.5001-19.0441
		c5.243-3.6818,10.9656-7.945,16.9536-7.7311c7.322,0.7197,1.431,14.2021-6.5263,21.6364
		c-17.2643,16.1237-70.9184,49.7071-70.9184,49.7071s-50.2289-61.2872-52.873-78.7074c-0.9548-6.3052,4.0687-9.6625,10.7649-9.4739
		c7.9608,0.5473,13.3671,8.3585,17.8874,14.254c1.7054,2.229,3.3824,4.4822,5.0263,6.7643
		c-4.8932-11.1519-9.0782-22.3239-11.461-33.677c-1.561-7.4547,1.6575-16.0362,10.9368-15.9884
		c13.196,0.6625,16.7283,18.5431,19.4958,29.0526C200.8051,47.6451,203.1852,57.9023,204.9538,68.2357z M217.6853,58.3964
		c-7.1095,29.4207-5.1188,21.2843-5.1188,21.2843c2.2941-7.6818,4.194-15.4722,5.6184-23.3654
		C218.1849,56.3153,217.8698,57.6036,217.6853,58.3964z M156.0985,43.7549c1.9238-0.0826,5.6334,2.0292,1.4942-1.2344
		c-0.5817-0.4603-1.4566-0.3798-2.3102,0.146c0.8002,0.0546,1.9083,0.1953,3.1443,0.5306L156.0985,43.7549z M256.7653,23.535
		c0,0,4.6564,5.4245,0.0143-0.0099C256.726,23.4689,256.7605,23.5208,256.7653,23.535z M175.2206,15.8575
		c-1.0239,0.0497-1.9223,3.2569-0.2565,1.6845C176.2161,16.4694,181.8068,15.7461,175.2206,15.8575z M219.6642,10.5071
		c-3.1814,3.5634,1.3284,5.7152,0.161,0.2033C219.8252,10.7104,219.881,10.2785,219.6642,10.5071z"/>
	<path class="st0" d="M177.8713,29.9788l0.2045,0.2124l1.6142,4.4036l0.4605,1.2812l0.5853,1.6185l0.4757,1.3619l0.4911,1.4146
		l0.5222,1.5769l0.7287,2.2197l0.2518,0.7909l0.956,3.016l0.2169,0.6955l0.2518,0.8149l0.464,1.5101l0.4592,1.5156l0.4541,1.5155
		l-0.4315,0.8636l-0.8497-0.4608l-0.4924-1.5005l-0.502-1.4954l-0.5023-1.4958l-0.2756-0.7999l-0.2355-0.6906l-1.0232-2.9911
		l-0.2704-0.7809l-0.7477-2.2051l-0.5412-1.5717l-0.4623-1.4245l-0.4472-1.3671l-0.5187-1.6391l-0.4127-1.3006l-1.3906-4.4743
		l0.0333-0.3018l0.3063-0.6227L177.8713,29.9788z"/>
	<path class="st0" d="M186.5196,42.7674l0.2076,0.4467l0.1336,0.5724l0.2508,1.0352l0.2599,1.0303l0.2698,1.03l0.1117,0.4243
		l0.1581,0.6057l0.279,1.0346l0.2591,0.9536l0.2897,1.1111l0.3207,1.2062l0.2048,0.8681l0.2974,1.2596l0.1802,0.8348l0.2219,1.0501
		l0.0983,0.4723l0.1193,0.5823l0.2029,1.0553l0.1983,1.0594l-0.4432,0.7397l-0.7163-0.482l-0.2647-1.035l-0.2793-1.03l-0.1574-0.572
		l-0.1268-0.4576l-0.2841-1.0296l-0.2324-0.8153l-0.3354-1.2442l-0.2336-0.8633l-0.2918-1.2161l-0.271-1.1166l-0.2207-0.9686
		l-0.2366-1.0494l-0.134-0.6203l-0.0927-0.4295l-0.2128-1.055l-0.2078-1.0593l-0.1982-1.055l-0.0999-0.5827l0.0162-0.4985
		l0.3838-0.5753L186.5196,42.7674z"/>
	<path class="st0" d="M188.184,29.3407l0.4716,0.7827l0.4767,0.7827l0.4906,0.787l0.3769,0.8272l0.3766,0.837l0.3674,0.8418
		l0.3623,0.8418l0.2539,0.5945l0.104,0.2568l0.3481,0.8517l0.3393,0.8613l0.3389,0.8616l0.3291,0.8612l0.3247,0.8715l0.32,0.8712
		l0.0202,0.0523l0.2902,0.824l0.3058,0.876l0.2958,0.8814l0.2963,0.8855l0.2867,0.8862l0.2864,0.8909l0.2772,0.8913l0.0151,0.0523
		l0.2526,0.8435l0.2627,0.8957l0.2534,0.9013l0.2531,0.9009l0.2487,0.9061l0.2389,0.9057l0.1681,0.6389l0.0715,0.272l0.2199,0.9108
		l0.2198,0.9116l0.2152,0.9156l0.2107,0.9113l0.2009,0.916l0.2008,0.9211l0.0358,0.167l0.1556,0.749l0.1819,0.9212l0.1814,0.9215
		l0.1724,0.9212l0.1724,0.9212l0.1676,0.9216l0.1469,0.836l0.0108,0.0859l0.1533,0.9264l0.1482,0.922l0.1439,0.9264l0.2679,1.844
		l0.2584,1.844l0.239,1.8444l0.2247,1.8397l0.0555,0.483l0.1261,1.3575l0.1578,1.8315l0.1432,1.8314l0.0782,1.0187l0.0555,0.8033
		l0.119,1.8125l0.1046,1.8085l-0.3661,0.4988l-0.4518-0.4287l-0.2144-1.7922l-0.2381-1.7917l-0.1129-0.7977l-0.1403-1.0032
		l-0.267-1.8059l-0.2865-1.81l-0.2313-1.3325l-0.0698-0.4775l-0.2821-1.8151l-0.3055-1.8194l-0.3154-1.819l-0.3395-1.8241
		l-0.1768-0.9065l-0.1771-0.907l-0.1862-0.9116l-0.0159-0.0859l-0.1655-0.8209l-0.1869-0.9117l-0.1909-0.9069l-0.1957-0.9065
		l-0.2009-0.9065l-0.2056-0.9018l-0.1694-0.7394l-0.0409-0.167l-0.2056-0.9062l-0.2151-0.9017l-0.2194-0.9017l-0.2202-0.9018
		l-0.2294-0.8962l-0.2293-0.8969l-0.0708-0.2668l-0.163-0.6294l-0.2345-0.8963l-0.2388-0.8918l-0.2432-0.8917l-0.2487-0.8915
		l-0.2531-0.8863l-0.2431-0.8392l-0.0148-0.0475l-0.2578-0.8866l-0.2626-0.8819l-0.2721-0.8767l-0.2724-0.8815l-0.2768-0.872
		l-0.286-0.8715l-0.2716-0.8194l-0.0199-0.0475l-0.2911-0.8716l-0.2958-0.8624l-0.3006-0.862l-0.3054-0.8566l-0.3148-0.8572
		l-0.3195-0.8474l-0.095-0.2565l-0.2246-0.5952l-0.3243-0.8426l-0.3291-0.8423l-0.3386-0.8422l-0.3432-0.828l-0.0001-0.0044
		l-0.2432-0.8771l-0.2673-0.8676l-0.2911-0.8621l0.2436-0.65L188.184,29.3407z"/>
	<path class="st0" d="M192.1382,67.9937l0.5791,0.9437l0.1199,0.3092l0.5136,1.3282l0.1052,0.2858l0.38,1.0469l0.3859,1.1098
		l0.0802,0.2288l0.442,1.3481l0.4325,1.3481l0.4186,1.3533l0.4084,1.3533l0.2022,0.7006l0.1879,0.6579l0.3751,1.3683l0.366,1.3637
		l0.3561,1.3735l0.3423,1.3685l0.0612,0.2339l0.2332,1.1547l0.2129,1.0835l0.0621,0.3056l0.2564,1.3939l-0.4332,0.7824
		l-0.7358-0.5101l-0.3846-1.3588l-0.0862-0.2953l-0.294-1.0635l-0.3286-1.1198l-0.0565-0.2336l-0.3462-1.3592l-0.3564-1.3593
		l-0.3656-1.3538l-0.3751-1.3493l-0.1923-0.6528l-0.1975-0.6959l-0.389-1.3441l-0.4091-1.3439l-0.4178-1.3342l-0.4321-1.3338
		l-0.0758-0.2288l-0.3614-1.105l-0.3562-1.043l-0.0957-0.2858l-0.4511-1.3287l-0.11-0.3095l-0.1894-1.0843l0.2868-0.6362
		L192.1382,67.9937z"/>
	<path class="st0" d="M185.6449,68.8794l0.025,0.0519l0.5284,1.0692l0.3562,0.7321l0.2576,0.5703l0.1595,0.3998l0.7228,1.8321
		l0.4136,1.0615l0.7681,1.9794l0.3541,0.9234l1.0924,2.8512l0.0202,0.0574l-0.286,0.6794l-0.6801-0.2912l-0.0199-0.057
		l-1.1925-2.8064l-0.3873-0.9134l-0.8298-1.9504l-0.4426-1.0508l-0.7607-1.8174l-0.164-0.3946l-0.21-0.5908l-0.2562-0.7762
		l-0.3626-1.134l-0.0199-0.057l0.2726-0.6365L185.6449,68.8794z"/>
	<path class="st0" d="M164.0445,64.3683l0.0587,0.0752l0.3172,0.407l0.3813,0.4827l0.3806,0.4724l0.3904,0.4684l0.3076,0.3735
		l0.0825,0.0945l0.3905,0.4677l0.3948,0.4632l0.3995,0.4584l0.0198,0.0234l0.3754,0.4395l0.3996,0.4534l0.4047,0.4534l0.0583,0.066
		l0.3412,0.3924l0.8087,0.9111l0.8181,0.8971l0.8327,0.8877l0.8419,0.877l0.8513,0.8682l0.6809,0.6788l0.1847,0.1788l0.8699,0.8531
		l0.875,0.8488l0.889,0.8334l0.8988,0.8287l0.0429,0.9426l-0.9375,0.0335l-0.9083-0.8286l-0.9032-0.8381l-0.8941-0.848
		l-0.8846-0.8575l-0.185-0.1843l-0.6905-0.6831l-0.8608-0.882l-0.8521-0.8917l-0.8423-0.9015l-0.828-0.9158l-0.8185-0.9209
		l-0.346-0.3971l-0.0587-0.0708l-0.3901-0.4775l-0.3908-0.4776l-0.366-0.4585l-0.0194-0.0237l-0.3762-0.4878l-0.3766-0.4919
		l-0.3711-0.4921l-0.0737-0.1041l-0.2882-0.3979l-0.362-0.497l-0.3572-0.5068l-0.3577-0.5065l-0.2938-0.4313l-0.0539-0.0756
		l0.1043-0.6866L164.0445,64.3683z"/>
	<path class="st0" d="M211.8011,34.8499l0.0012,0.0815l0.0163,1.9962l0.0104,0.9717l-0.0021,1.111l-0.0062,2.0826l-0.0041,0.6462
		l-0.0402,1.4321l-0.0637,2.0838l-0.068,2.0788l-0.0096,0.3211l-0.1561,3.8324l-0.5989,0.5984L210.32,51.453l0.0841-3.8363
		l0.0096-0.3211l0.0538-2.0784l0.0443-2.074l0.0263-1.432l0.0279-0.6467l0.0831-2.0791l0.0401-1.1067l0.0426-0.9677l0.0844-1.9932
		l0.0031-0.0816l0.5003-0.4863L211.8011,34.8499z"/>
	<path class="st0" d="M218.1297,30.7735l0.0056,0.0523l0.0986,0.4873l0.1035,0.5154l0.0108,0.0618l-0.0137,0.987l-0.0222,1.0485
		l-0.0267,1.0493l-0.0201,0.5413l-0.0208,0.5076l-0.0512,1.0445l-0.0556,1.0445l-0.0604,1.0449l-0.0651,1.0446l-0.0346,0.5508
		l-0.0356,0.4894l-0.1543,2.0848l-0.169,2.0855l-0.1702,1.9989l-0.0083,0.0867l-0.6614,0.5704l-0.5704-0.6665l0.0034-0.0812
		l0.137-2.0035l0.1306-2.08l0.1207-2.0796l0.0261-0.4842l0.0295-0.5508l0.0513-1.0401l0.0461-1.0394l0.0413-1.0347l0.0319-1.0397
		l0.0161-0.5029l0.0157-0.5317l0.0271-1.0393l0.0176-1.0393l0.0133-0.9816l0.0134-0.0575l0.1024-0.514l0.1025-0.4804l0.0086-0.0527
		l0.4956-0.4866L218.1297,30.7735z"/>
	<path class="st0" d="M224.9168,29.0979l-0.0358,1.0877l-0.0405,1.0873l-0.0508,1.0829l-0.0547,1.0826l-0.0647,1.083l-0.0694,1.0833
		l-0.0269,0.4265l-0.0667,0.6474l-0.1078,1.0743l-0.1221,1.0696l-0.1272,1.0695l-0.132,1.0699l-0.1414,1.0648l-0.1463,1.0652
		l-0.151,1.0605l-0.1609,1.0608l-0.1656,1.0605l-0.083,0.5231l-0.0874,0.5327l-0.18,1.0565l-0.1846,1.0511l-0.1945,1.0514
		l-0.1942,1.0518l-0.1993,1.0467l-0.1466,0.7496l-0.0626,0.2974l-0.2136,1.0471l-0.4367,2.0898l-0.4513,2.0847l-0.175,0.7782
		l-0.3005,1.2978l-0.4897,2.0756l-0.4949,2.0712l-0.504,2.0665l-1.0182,4.133l-0.4599,1.8506l-0.5774,2.2831l-0.5234,2.0618
		l-0.5139,2.0669l-0.5091,2.0665l-0.4996,2.0716l-0.3276,1.3933l-0.1767,0.6779l-0.523,2.0666l-0.5088,2.0764l-0.2425,1.038
		l-0.108,0.4661l-0.1348,0.5766l-0.2421,1.0428l-0.2329,1.0423l-0.2279,1.0475l-0.2234,1.0518l-0.6152,0.45l-0.4168-0.6398
		l0.1653-1.0609l0.1703-1.0652l0.1748-1.0609l0.1755-1.0608l0.1012-0.5904l0.0831-0.4705l0.1898-1.0561l0.3839-2.1123l0.3983-2.1083
		l0.1331-0.6914l0.3086-1.4027l0.4656-2.0851l0.4754-2.0854l0.4798-2.0804l0.4901-2.0759l0.5387-2.2875l0.4503-1.855l1.0084-4.1334
		l0.4948-2.0661l0.4901-2.0664l0.4802-2.0661l0.2961-1.2875l0.1842-0.7786l0.4755-2.0664l0.4612-2.0704l0.2283-1.0332l0.0626-0.2974
		l0.1608-0.7398l0.2184-1.0329l0.2188-1.0426l0.2088-1.0372l0.2088-1.0423l0.1993-1.0372l0.0973-0.5235l0.102-0.5232l0.1946-1.0419
		l0.1898-1.0466l0.1803-1.0466l0.1752-1.0466l0.1656-1.051l0.1609-1.0557l0.1558-1.0558l0.1466-1.0553l0.1371-1.0604l0.0806-0.638
		l0.061-0.4224l0.1462-1.0601l0.1416-1.0656l0.1268-1.0692l0.1177-1.0695l0.1078-1.0743l0.0932-1.0787l0.5198-0.4582
		L224.9168,29.0979z"/>
	<path class="st0" d="M212.5971,64.0336l0.4013,0.5682l-0.017,0.1299l-0.4611,3.32l-0.0559,0.413l-0.3703,2.6674l-0.0515,0.3647
		l-0.321,2.1692l-0.7841,4.7041l-0.0177,0.1057l-0.5759,3.3217l-0.493,2.7942l-0.1146,0.634l-0.3083,1.714l-0.3186,1.7139
		l-0.3182,1.7092l-0.301,1.5753l-0.022,0.1393l-0.8242,0.5631l-0.5634-0.8195l0.0216-0.139l0.2823-1.5749l0.2992-1.7091
		l0.2941-1.7136l0.2894-1.7139l0.1055-0.6336l0.4736-2.7989l0.547-3.3213l0.0221-0.1058l0.7988-4.6997l0.4072-2.1555l0.071-0.3607
		l0.5386-2.6414l0.0847-0.4083l0.6861-3.2807l0.0272-0.1298L212.5971,64.0336z"/>
	<path class="st0" d="M229.9196,67.1508l0.1444,0.6729l-0.7328,1.2175l-0.723,1.2273l-0.7087,1.232l-0.7035,1.246l-0.1767,0.3284
		l-0.5126,0.9222l-0.675,1.2553l-0.3347,0.6323l-0.3304,0.6373l-0.3204,0.6319l-0.3252,0.6417l-0.3158,0.6373l-0.3109,0.6413
		l-0.3059,0.6465l-0.3059,0.6465l-0.2781,0.6025l-0.0186,0.0435l-0.301,0.641l-0.3015,0.6464l-0.2912,0.6509l-0.2868,0.6508
		l-0.2821,0.6511l-0.2263,0.5395l-0.0509,0.1105l-0.2773,0.6508l-0.2722,0.6552l-0.2678,0.6507l-0.2623,0.66l-0.1295,0.3322
		l-0.2829,0.2679l-0.6324,0.292l-0.2874-0.632l-0.0396-0.3919l0.124-0.3422l0.248-0.6741l0.2531-0.669l0.2623-0.6746l0.2678-0.6697
		l0.0411-0.1109l0.2358-0.5541l0.2864-0.66l0.2964-0.661l0.2962-0.6552l0.3007-0.656l0.3113-0.6511l0.0182-0.0433l0.302-0.6036
		l0.33-0.6465l0.3296-0.6418l0.3351-0.637l0.3399-0.6373l0.3443-0.6374l0.3493-0.6323l0.3494-0.633l0.3541-0.6275l0.7178-1.2515
		l0.5415-0.9131l0.191-0.3237l0.7471-1.2325l0.7519-1.2183l0.7618-1.2135l0.7717-1.1992L229.9196,67.1508z"/>
	<path class="st0" d="M243.5524,40.0419l0.1051,0.6017l-0.5886,0.9473l-0.5839,0.9571l-0.5788,0.9572l-0.289,0.4881l-0.2849,0.4782
		l-0.5739,0.9663l-0.5641,0.9666l-0.5596,0.9754l-0.5498,0.9757l-0.5079,0.908l-0.042,0.0729l-0.5545,0.9754l-0.5498,0.9757
		l-0.545,0.9805l-0.3118,0.5792l-0.2288,0.3961l-0.5403,0.9757l-0.5352,0.9801l-0.2699,0.5019l-0.4154,0.3994l-0.6622,0.2062
		l-0.2069-0.6623l0.092-0.571l0.2648-0.5071l0.5256-0.9991l0.5308-0.9947l0.2233-0.4053l0.3309-0.58l0.5644-0.9757l0.5688-0.9758
		l0.579-0.9713l0.0415-0.0726l0.5562-0.8847l0.608-0.9528l0.6076-0.9525l0.6172-0.9481l0.6175-0.9433l0.3087-0.464l0.3132-0.4743
		l0.6325-0.929l0.6315-0.9339l0.6322-0.9243L243.5524,40.0419z"/>
	<path class="st0" d="M252.5898,41.7692l0.0804,0.5546l-1.8798,2.9064l-1.8893,2.916l-1.5801,2.4517l-0.3041,0.4694l-1.894,2.9258
		l-1.8791,2.9306l-0.6309,0.9913l-1.2529,1.9441l-0.9397,1.4699l-0.935,1.4702l-0.9301,1.4742l-0.2428,0.3918l-0.6922,1.0784
		l-0.9346,1.4699l-0.9298,1.4746l-0.9207,1.4749l-0.5372,0.8649l-0.3831,0.6141l-0.9155,1.4793l-0.9108,1.484l-0.8961,1.4884
		l-0.8913,1.4881l-0.168,0.2852l-0.7136,1.2083l-0.877,1.5023l-0.8625,1.5023l-0.8482,1.507l-0.8384,1.5168l-0.8287,1.5204
		l-0.8095,1.5259l-0.6741,1.2978l-0.1254,0.2416l-0.6622,0.2113l-0.2164-0.6571l0.1206-0.2464l0.6551-1.3072l0.7849-1.554
		l0.7998-1.5441l0.8141-1.5351l0.8237-1.5358l0.8335-1.5303l0.8478-1.5212l0.6893-1.2317l0.1684-0.2899l0.8716-1.5122l0.8767-1.507
		l0.891-1.5031l0.8965-1.4982l0.3779-0.6185l0.5328-0.8699l0.9203-1.4841l0.9295-1.4845l0.9301-1.4742l0.6918-1.0832l0.2526-0.3871
		l0.9588-1.4611l0.9638-1.4604l0.9686-1.4513l1.2869-1.9255l0.6599-0.9727l1.9666-2.8792l1.9661-2.8789l0.3187-0.46l1.6574-2.4054
		l1.9618-2.8598l1.952-2.8646L252.5898,41.7692z"/>
	<path class="st0" d="M219.6557,94.1353l0.0891,0.8222l-1.7921,2.3691l-0.0988,0.1307l-1.6936,2.2285l-1.1028,1.4439l-0.7284,0.8971
		l-0.7566,0.9217l-0.1882,0.2227l-0.9167,1.0913l-0.0376,0.0436l-0.6928,0.0874l-0.0823-0.6928l0.0325-0.0436l0.8343-1.1573
		l0.1736-0.2373l0.7034-0.9585l0.6801-0.9299l1.1123-1.4293l1.7134-2.2197l0.0981-0.1308l1.8313-2.3314L219.6557,94.1353z"/>
	<path class="st0" d="M200.3354,98.3745l-0.0047,0.0288l-0.0326,0.6514l-0.0026,0.1536l-0.0049,0.2922l0.015,0.3492l0.0172,0.1865
		l0.0977,1.0709l0.0568,0.5638l0.1084,1.1378l0.2099,2.0987l0.0052,0.0336l-0.3053,0.3733l-0.3689-0.3054l-0.0048-0.0288
		l-0.2194-2.1031l-0.1231-1.1327l-0.0611-0.5594l-0.1317-1.0705l-0.0219-0.1817l-0.0676-0.3389l-0.0661-0.2861l-0.0409-0.148
		l-0.182-0.6242l-0.0103-0.0285l0.5026-0.6351L200.3354,98.3745z"/>
	<path class="st0" d="M222.9484,100.2512l1.2715-1.073l0.0471-0.0392l1.423-1.19l0.0044-0.0052l2.9332-2.2807l2.2235-1.7249
		l0.7193-0.5522l2.4129-1.8515l0.5397-0.4063l2.3426-1.7741l0.6247-0.4595l1.4912-1.1002l0.7668-0.5721l0.7292-0.5285l1.4908-1.105
		l0.9183-0.6847l0.5728-0.425l1.4817-1.1148l1.4762-1.124l0.628,0.0335l-0.1007,0.6237l-1.4178,1.1995l-1.4227,1.1955
		l-0.5483,0.4583l-0.8839,0.7322l-1.4325,1.1856l-0.6994,0.5756l-0.7426,0.6005l-1.4519,1.1663l-0.6101,0.4836l-2.3276,1.7979
		l-0.5349,0.4103l-2.4328,1.8332l-0.7193,0.5427l-2.2576,1.6822l-2.9772,2.2194l-0.0051,0l-1.5154,1.0674l-0.0522,0.0341
		l-1.3588,0.9548l-0.1091,0.0781l-0.691-0.0897l0.0899-0.6906L222.9484,100.2512z"/>
	<path class="st0" d="M247.3617,78.2995l1.2602-0.8668l0.6632-0.4556l1.6492-1.0932l0.2322-0.1519l1.2041-0.7752l1.2144-0.7226
		l1.3434-0.7627l1.5187-0.8611l0.7959,0.0737l-0.2423,0.76l-1.3863,1.0652l-1.2253,0.938l-1.1363,0.8412l-1.1843,0.8037
		l-0.2319,0.1567l-1.6591,1.0885l-0.683,0.4271l-1.2991,0.8149l-0.7257,0.4517l-0.7062,0.1543l-0.682-0.1426l0.1474-0.6772
		l0.4266-0.586L247.3617,78.2995z"/>
	<path class="st0" d="M250.9469,83.501l0.7655-0.658l0.1653-0.1412l0.6192-0.5031l0.79-0.6248l0.298-0.2347l0.5111-0.3763
		l0.8194-0.5875l0.5444-0.3914l0.2797-0.1907l0.8385-0.5686l0.8341-0.5634l0.1326-0.0884l0.7062-0.4703l1.6682-1.1079l0.5465,0.0391
		l-0.1401,0.5291l-1.5802,1.2262l-0.6626,0.5224l-0.1274,0.1023l-0.7854,0.6207l-0.7802,0.6295l-0.2603,0.2144l-0.5199,0.4151
		l-0.7755,0.6299l-0.4822,0.3949l-0.2935,0.2295l-0.7853,0.6251l-0.6096,0.4928l-0.1655,0.1324l-0.7757,0.6244l-0.7656,0.6346
		l-0.0708,0.063l-0.6904,0.5759l-0.756,0.6485l-0.7413,0.6624l-0.3635,0.3357l-0.3066,0.2874l-0.0569,0.0535l-0.6942-0.008
		l0.0085-0.6945l0.0514-0.0583l0.2974-0.3015l0.358-0.3595l0.7168-0.7102l0.7361-0.696l0.6705-0.6234l0.0704-0.0635L250.9469,83.501
		z"/>
	<path class="st0" d="M265.7525,69.3875l0.6955-0.5372l0.7054-0.528l0.7149-0.5186l0.6138,0.0813l-0.0956,0.6142l-0.6909,0.5331
		l-0.6765,0.5415l-0.6615,0.5514l-0.6615,0.5704l-0.6906-0.0659l0.0611-0.6902L265.7525,69.3875z"/>
	<path class="st0" d="M208.5972,110.6329l0.3463-0.1924l0.4035-0.2308l0.3985-0.236l0.2656-0.1626l0.1329-0.0785l0.3937-0.2407
		l0.3885-0.2451l0.0383-0.0245l0.3554-0.2213l0.389-0.2454l0.0379-0.0242l0.7543-0.4525l0.7823-0.4858l0.7827-0.4956l0.0372-0.0294
		l0.7398-0.4754l0.7823-0.5055l0.7772-0.5151l0.8103-0.5389l0.749-0.4905l0.787-0.5147l0.7914-0.5104l0.8013-0.5005l0.74-0.4521
		l0.0617-0.0393l0.7013,0.1569l-0.1568,0.6962l-0.0614,0.0396l-0.7253,0.4754l-0.7727,0.5194l-0.7669,0.529l-0.7676,0.534
		l-0.7343,0.5138l-0.791,0.5582l-0.7671,0.5381l-0.7676,0.534l-0.7343,0.5044l-0.0373,0.0294l-0.787,0.5198l-0.7866,0.51
		l-0.7637,0.4715l-0.0383,0.0245l-0.4175,0.2317l-0.3751,0.2067l-0.038,0.0198l-0.4274,0.2174l-0.423,0.2071l-0.1425,0.0698
		l-0.2897,0.1385l-0.4329,0.198l-0.4374,0.1936l-0.3712,0.1587l-0.0665,0.025l-0.6594-0.2246l0.2294-0.6547L208.5972,110.6329z"/>
	<path class="st0" d="M207.4962,95.7982l-0.1013,2.1034l-0.0556,1.054l-0.0604,1.0544l-0.0603,1.0493l-0.0698,1.0544l-0.075,1.0544
		l-0.0841,1.0498l-0.4534,0.3996l-0.3904-0.4582l0.0654-1.0493l0.0604-1.05l0.0508-1.0493l0.046-1.0489l0.0413-1.0492l0.0362-1.0493
		l0.068-2.1029l0.5095-0.4721L207.4962,95.7982z"/>
	<path class="st0" d="M184.9974,85.201l0.0582,0.0617l0.4716,0.4762l0.258,0.2591l0.8077,0.835l0.0488,0.0471l0.4202,0.5491
		l0.4544,0.6057l0.4551,0.6058l0.4496,0.6105l0.4452,0.6156l0.4401,0.6156l0.3774,0.5401l0.0587,0.0854l0.862,1.2503l0.8474,1.2605
		l0.8339,1.2654l0.8288,1.2749l0.6233,0.9865l0.1915,0.2988l0.7999,1.2848l0.7958,1.2904l0.786,1.29l0.7813,1.2948l1.484,2.4763
		l0.0638,0.1044l-0.2662,1.0669l-1.0666-0.2658l-0.0638-0.1044l-1.4892-2.4712l-0.7809-1.2856l-0.7864-1.2853l-0.7904-1.2804
		l-0.8002-1.2757l-0.1912-0.2983l-0.6182-0.9769l-0.8145-1.2658l-0.8239-1.2563l-0.838-1.2504l-0.8524-1.2416l-0.0587-0.0803
		l-0.3675-0.5354l-0.4258-0.616l-0.4354-0.6109l-0.4357-0.6062l-0.4405-0.6058l-0.4448-0.6013l-0.4103-0.5444l-0.0298-0.0567
		l-0.3883-0.645l-0.211-0.332l-0.1816-0.3086l-0.3584-0.5643l-0.0441-0.0708l0.0802-0.691L184.9974,85.201z"/>
</g>
<g transform="matrix(0.780119,-0.314049,0.314049,0.780119,-94.4147,103.397)">
	<path class="st2" d="M361.7157,164.9236c-0.9156-19.587-3.2557-39.923,2.5726-58.7141c1.4094-4.5367,3.7632-9.6145,9.9216-9.5378
		c10.3969,0.4904,11.2277,14.2903,11.8914,22.1943c1.0786,12.7907-0.6929,25.4819-3.8889,37.9939
		c4.3203-13.176,9.11-26.0618,18.3681-36.3699c2.9275-3.2579,6.1456-6.3239,11.2449-6.2875
		c11.574,0.4286,8.2079,18.9663,4.9898,26.691c-3.9101,9.3728-9.8889,17.8154-16.3678,25.7624c0,0-0.9498,1.1544-1.9268,2.6823
		c-1.7628,2.723-3.593,5.4084-5.4918,8.0375c6.1819-5.8264,15.0456-13.8062,22.5004-19.0443
		c5.243-3.6815,10.9656-7.9449,16.9538-7.731c7.322,0.7195,1.4305,14.2024-6.5265,21.6363
		c-17.264,16.1241-70.9187,49.707-70.9187,49.707s-50.2284-61.2867-52.8727-78.7068c-0.9548-6.3052,4.0686-9.6626,10.7649-9.4739
		c7.9608,0.5466,13.3675,8.3585,17.8874,14.2542c1.7051,2.2281,3.3825,4.4814,5.0262,6.7639
		c-4.8933-11.1517-9.0782-22.3241-11.4609-33.6774c-1.561-7.454,1.6578-16.0359,10.937-15.9882
		c13.1959,0.6624,16.728,18.5428,19.4954,29.0527C357.5673,144.3332,359.9472,154.5897,361.7157,164.9236z M374.4478,155.0839
		c-7.1098,29.4206-5.1192,21.2843-5.1192,21.2843c2.2937-7.6815,4.194-15.472,5.618-23.365
		C374.9466,153.0032,374.6317,154.2911,374.4478,155.0839z M312.8607,140.4425c1.9234-0.0821,5.633,2.0295,1.4939-1.234
		c-0.5815-0.4601-1.4564-0.38-2.3104,0.1457c0.8009,0.0545,1.9086,0.1952,3.1443,0.5304L312.8607,140.4425z M413.5275,120.2228
		c0,0,4.6561,5.4247,0.0139-0.0098C413.4882,120.1564,413.5222,120.2086,413.5275,120.2228z M331.9826,112.5454
		c-1.0237,0.0494-1.9221,3.2567-0.2562,1.6844C332.9784,113.1569,338.5687,112.434,331.9826,112.5454z M376.4264,107.1946
		c-3.1813,3.5633,1.3282,5.7152,0.1612,0.2035C376.5876,107.3981,376.6432,106.9662,376.4264,107.1946z"/>
	<path class="st0" d="M334.6334,126.6664l0.2043,0.2126l1.6147,4.4038l0.4601,1.2808l0.5854,1.6184l0.4758,1.362l0.4909,1.4148
		l0.5226,1.5766l0.7283,2.2199l0.2516,0.7905l0.9566,3.0163l0.2166,0.6955l0.2517,0.8147l0.4639,1.5106l0.4592,1.5153l0.4542,1.5155
		l-0.4318,0.8635l-0.8496-0.4608l-0.4928-1.5002l-0.5018-1.4956l-0.5018-1.4956l-0.2757-0.8002l-0.2357-0.6906l-1.023-2.9908
		l-0.2708-0.7811l-0.7475-2.205l-0.5411-1.5714l-0.4626-1.4249l-0.4474-1.367l-0.5182-1.6392l-0.4127-1.3002l-1.391-4.4744
		l0.0336-0.3022l0.3066-0.6224L334.6334,126.6664z"/>
	<path class="st0" d="M343.2816,139.4551l0.2079,0.4467l0.1335,0.5729l0.2506,1.0348l0.2603,1.0299l0.2694,1.0303l0.112,0.4241
		l0.1577,0.6058l0.2792,1.0348l0.2591,0.9535l0.2902,1.1112l0.3203,1.2059l0.2048,0.8684l0.2972,1.2592l0.1804,0.8349l0.2223,1.0504
		l0.0981,0.4723l0.1193,0.5821l0.2028,1.0552l0.1988,1.0596l-0.4434,0.7395l-0.7162-0.4819l-0.2648-1.035l-0.2795-1.0299
		l-0.1574-0.5721l-0.1266-0.4574l-0.2841-1.0296l-0.2328-0.8153l-0.3351-1.2443l-0.2339-0.8631l-0.2914-1.2162l-0.2711-1.1162
		l-0.2212-0.9685l-0.2363-1.0499l-0.1343-0.62l-0.0927-0.4295l-0.2122-1.0551l-0.2082-1.0595l-0.1984-1.0551l-0.0999-0.5825
		l0.0164-0.4983l0.3835-0.5755L343.2816,139.4551z"/>
	<path class="st0" d="M344.946,126.0285l0.4714,0.7827l0.4764,0.7825l0.491,0.7873l0.3766,0.827l0.377,0.8371l0.3675,0.8415
		l0.3622,0.8421l0.2535,0.5943l0.1044,0.2571l0.3486,0.8515l0.3386,0.8612l0.3391,0.8614l0.3292,0.8613l0.3246,0.8715l0.3198,0.8712
		l0.0202,0.0522l0.2903,0.8242l0.3057,0.876l0.2961,0.8809l0.2962,0.886l0.2866,0.8865l0.2867,0.8904l0.277,0.8914l0.0152,0.0523
		l0.2527,0.8437l0.2625,0.896l0.2534,0.9006l0.2533,0.9011l0.2486,0.9058l0.2392,0.9059l0.1679,0.6391l0.0715,0.2719l0.2197,0.9107
		l0.22,0.9114l0.2153,0.9161l0.2103,0.9108l0.2009,0.9163l0.2013,0.9209l0.0355,0.1672l0.1555,0.749l0.1819,0.9213l0.1819,0.9213
		l0.172,0.9212l0.1725,0.9214l0.1674,0.9216l0.147,0.8358l0.0106,0.0857l0.1532,0.9268l0.1482,0.9215l0.1441,0.9265l0.2675,1.8441
		l0.2586,1.8443l0.2388,1.8441l0.225,1.8402l0.0556,0.4822l0.1259,1.3581l0.1577,1.8312l0.1433,1.8315l0.0778,1.0186l0.0555,0.8034
		l0.1194,1.813l0.1043,1.8081l-0.3659,0.499l-0.4517-0.4288l-0.2145-1.7925l-0.2385-1.7917l-0.1128-0.7978l-0.1402-1.003
		l-0.2669-1.8059l-0.2867-1.81l-0.2314-1.3324l-0.0696-0.4774l-0.2819-1.8152l-0.3055-1.8192l-0.3154-1.8193l-0.3395-1.8236
		l-0.1771-0.9073l-0.1768-0.9066l-0.1863-0.9116l-0.0159-0.0862l-0.1657-0.8208l-0.1863-0.9116l-0.1915-0.907l-0.1955-0.9065
		l-0.201-0.9065l-0.2057-0.9018l-0.1692-0.7397l-0.0407-0.1665l-0.2059-0.9068l-0.2146-0.9015l-0.2201-0.9015l-0.2196-0.9013
		l-0.2293-0.8964l-0.2296-0.8971l-0.0713-0.2669l-0.1625-0.6292l-0.2341-0.8967l-0.239-0.8915l-0.2438-0.8918l-0.2484-0.8914
		l-0.253-0.8867l-0.2427-0.8386l-0.0149-0.0478l-0.258-0.8865l-0.2627-0.8818l-0.2719-0.8767l-0.2722-0.8813l-0.277-0.8722
		l-0.2866-0.8716l-0.2709-0.8191l-0.0199-0.0476l-0.2914-0.8719l-0.2959-0.8622l-0.3004-0.8618l-0.3051-0.8571l-0.3151-0.8567
		l-0.3194-0.8474l-0.0952-0.2567l-0.2245-0.5953l-0.3242-0.8422l-0.3291-0.8425l-0.3387-0.842l-0.3433-0.8279l0.0003-0.0048
		l-0.2435-0.8774l-0.267-0.867l-0.291-0.8619l0.2437-0.6505L344.946,126.0285z"/>
	<path class="st0" d="M348.9,164.6815l0.5793,0.9438l0.1198,0.3089l0.5136,1.3282l0.1051,0.2854l0.3803,1.0474l0.3855,1.1095
		l0.0801,0.2286l0.4422,1.3484l0.4326,1.3479l0.4183,1.3531l0.4088,1.3537l0.2024,0.7008l0.1873,0.6579l0.3754,1.3683l0.3658,1.3633
		l0.3561,1.3737l0.3423,1.3687l0.0611,0.2336l0.2336,1.155l0.2129,1.0834l0.0623,0.3056l0.2562,1.394l-0.4333,0.7826l-0.7355-0.5106
		l-0.3849-1.3584l-0.086-0.2959l-0.2943-1.0628l-0.3285-1.1201l-0.0561-0.2338l-0.3465-1.3594l-0.3566-1.3591l-0.3658-1.354
		l-0.375-1.3489l-0.1919-0.6531l-0.1977-0.6962l-0.3895-1.3443l-0.4084-1.3436l-0.4182-1.3344l-0.4323-1.3335l-0.0751-0.2288
		l-0.362-1.1049l-0.3561-1.0432l-0.095-0.2858l-0.4518-1.3287l-0.1103-0.3095l-0.1889-1.0842l0.287-0.6363L348.9,164.6815z"/>
	<path class="st0" d="M342.4071,165.5668l0.0246,0.0523l0.5288,1.0692l0.356,0.7318l0.2578,0.5702l0.1597,0.3998l0.7221,1.8324
		l0.4143,1.0611l0.7677,1.98l0.3544,0.9231l1.0925,2.851l0.0198,0.0575l-0.2862,0.6795l-0.6795-0.2917l-0.02-0.057l-1.1925-2.806
		l-0.3875-0.9134l-0.8298-1.95l-0.4424-1.0515l-0.7607-1.8171l-0.1639-0.3949l-0.2106-0.5903l-0.256-0.7768l-0.3621-1.1336
		l-0.0204-0.0572l0.2732-0.6364L342.4071,165.5668z"/>
	<path class="st0" d="M320.8651,161.1315l0.3175,0.4067l0.381,0.4828l0.3806,0.4728l0.3903,0.4679l0.3078,0.3736l0.0825,0.0943
		l0.3903,0.4679l0.3949,0.4631l0.4001,0.4586l0.0193,0.0232l0.3756,0.44l0.3994,0.4534l0.4044,0.4532l0.0587,0.066l0.3411,0.392
		l0.8088,0.9119l0.8181,0.897l0.8325,0.8873l0.8419,0.8774l0.8513,0.868l0.6809,0.6789l0.1848,0.1789l0.87,0.8529l0.8751,0.8484
		l0.8888,0.8335l0.8989,0.8288l0.043,0.9424l-0.9377,0.0339l-0.9083-0.8288l-0.9034-0.8383l-0.894-0.8478l-0.8845-0.8577
		l-0.185-0.1839l-0.6905-0.6839l-0.8611-0.8818l-0.8516-0.8917l-0.8423-0.9012l-0.8279-0.9163l-0.8185-0.9207l-0.3463-0.3968
		l-0.0584-0.0708l-0.3906-0.4779l-0.3904-0.4772l-0.3664-0.4588l-0.0191-0.0236l-0.3763-0.4875l-0.3762-0.4919l-0.3716-0.4923
		l-0.0737-0.1039l-0.2887-0.3978l-0.362-0.4972l-0.357-0.5067l-0.3575-0.5069l-0.2939-0.4313l-0.0537-0.0755l0.1041-0.6863
		l0.6863,0.1041L320.8651,161.1315z"/>
	<path class="st0" d="M368.5632,131.5379l0.0009,0.0812l0.0165,1.996l0.0103,0.9716l-0.0017,1.1109l-0.0064,2.0831l-0.0044,0.6462
		l-0.0399,1.4326l-0.0636,2.0831l-0.0681,2.0791l-0.0094,0.3213l-0.1562,3.8323l-0.5989,0.5982l-0.5604-0.6326l0.0842-3.8365
		l0.0092-0.3208l0.0541-2.0787l0.0446-2.0743l0.0258-1.4317l0.0281-0.6465l0.0825-2.0794l0.0407-1.1067l0.0426-0.9679l0.084-1.993
		l0.0035-0.0811l0.5001-0.4867L368.5632,131.5379z"/>
	<path class="st0" d="M374.8915,127.4611l0.0059,0.0524l0.0981,0.4872l0.1038,0.5154l0.0108,0.0621l-0.0136,0.9862l-0.0219,1.0489
		l-0.0269,1.0491l-0.0204,0.5412l-0.0208,0.5081l-0.0508,1.0444l-0.0558,1.0445l-0.0604,1.0449l-0.0652,1.0446l-0.0348,0.5509
		l-0.0354,0.4896l-0.1546,2.085l-0.1688,2.0848l-0.1702,1.9995l-0.0084,0.0863l-0.6613,0.5703l-0.5705-0.6664l0.0037-0.0816
		l0.1365-2.0032l0.1305-2.0798l0.1211-2.0798l0.026-0.484l0.0299-0.5512l0.0512-1.0398l0.0462-1.0396l0.0413-1.0344l0.032-1.0399
		l0.016-0.5029l0.0155-0.5317l0.0274-1.0395l0.0174-1.0391l0.0135-0.9818l0.0132-0.0574l0.1023-0.5138l0.1027-0.4806l0.0085-0.0527
		l0.4951-0.4866L374.8915,127.4611z"/>
	<path class="st0" d="M381.6788,125.7857l-0.0357,1.0873l-0.0407,1.0875l-0.0504,1.083l-0.0553,1.0827l-0.0642,1.083l-0.0699,1.0835
		l-0.027,0.4264l-0.0665,0.6475l-0.1077,1.0737l-0.122,1.0696l-0.1275,1.0696l-0.1316,1.0701l-0.1416,1.065l-0.1462,1.0654
		l-0.1512,1.0601l-0.1608,1.0606l-0.1658,1.0608l-0.083,0.5232l-0.0873,0.5325l-0.1799,1.0562l-0.1846,1.0515l-0.1945,1.0514
		l-0.1945,1.0514l-0.1992,1.0468l-0.1466,0.7495l-0.0627,0.2976l-0.2136,1.047l-0.437,2.0896l-0.4508,2.0845l-0.1747,0.7783
		l-0.3006,1.2974l-0.4898,2.076l-0.495,2.0712l-0.5041,2.0664l-1.0182,4.1332l-0.4595,1.8506l-0.5776,2.2832l-0.5237,2.0618
		l-0.5136,2.067l-0.5091,2.0666l-0.4993,2.0711l-0.3283,1.3935l-0.176,0.6777l-0.5235,2.0669l-0.5087,2.0766l-0.2428,1.0375
		l-0.1073,0.4661l-0.1347,0.5766l-0.2428,1.043l-0.2327,1.0426l-0.2278,1.0468l-0.2233,1.0519l-0.6152,0.4503l-0.4173-0.6399
		l0.1658-1.0608l0.1704-1.0655l0.1752-1.0609l0.175-1.0604l0.1009-0.5908l0.0839-0.4706l0.1893-1.0563l0.384-2.1125l0.3981-2.108
		l0.1332-0.6916l0.3083-1.4027l0.4659-2.0851l0.4753-2.0851l0.48-2.0805l0.4898-2.076l0.539-2.2872l0.4503-1.8549l1.0083-4.1333
		l0.4947-2.0663l0.4899-2.0667l0.4803-2.0661l0.2962-1.2877l0.1841-0.7784l0.4759-2.0662l0.4612-2.0705l0.2278-1.0331l0.0626-0.2977
		l0.1609-0.7399l0.2189-1.0328l0.2183-1.0424l0.2091-1.0373l0.2089-1.0423l0.1991-1.0369l0.0974-0.5235l0.1018-0.5233l0.1945-1.0421
		l0.1898-1.0467l0.1805-1.0466l0.1749-1.0466l0.1657-1.0509l0.1609-1.0556l0.1561-1.0559l0.1465-1.0553l0.1365-1.0605l0.0813-0.6377
		l0.0607-0.4227l0.1464-1.0603l0.1416-1.065l0.1269-1.0693l0.1172-1.0699l0.1079-1.0742l0.0936-1.0783l0.5196-0.4586
		L381.6788,125.7857z"/>
	<path class="st0" d="M369.7605,161.2897l-0.017,0.1296l-0.461,3.3202l-0.0561,0.4125l-0.3705,2.668l-0.0515,0.3643l-0.3211,2.1692
		l-0.7839,4.7044l-0.0178,0.1056l-0.5755,3.3219l-0.4933,2.794l-0.1143,0.6338l-0.309,1.7143l-0.3181,1.7139l-0.3185,1.7094
		l-0.3008,1.5751l-0.0219,0.1391l-0.8242,0.5636l-0.5633-0.8197l0.0215-0.1393l0.282-1.575l0.2991-1.7089l0.2944-1.7136
		l0.2895-1.7139l0.105-0.6337l0.4742-2.7984l0.5469-3.3219l0.0221-0.1055l0.799-4.6994l0.407-2.1561l0.0708-0.3604l0.5387-2.6415
		l0.0846-0.4082l0.6867-3.281l0.0268-0.1295l0.5681-0.4016L369.7605,161.2897z"/>
	<path class="st0" d="M386.8263,164.5111l-0.7329,1.218l-0.7234,1.2273l-0.7086,1.2316l-0.7036,1.2463l-0.1767,0.3282
		l-0.5126,0.9223l-0.6747,1.2552l-0.3349,0.6324l-0.3302,0.6371l-0.3205,0.6322l-0.3254,0.6417l-0.3153,0.637l-0.311,0.6415
		l-0.3058,0.6463l-0.3063,0.6461l-0.278,0.6031l-0.0185,0.0432l-0.3012,0.6416l-0.3008,0.6462l-0.2917,0.6509l-0.2867,0.6507
		l-0.2822,0.6504l-0.2261,0.5398l-0.0512,0.1108l-0.2769,0.6509l-0.2726,0.6553l-0.2673,0.6503l-0.263,0.6603l-0.1288,0.3321
		l-0.2832,0.2677l-0.6319,0.2923l-0.2878-0.6323l-0.0398-0.3917l0.124-0.3422l0.2482-0.674l0.2529-0.6693l0.2626-0.6742l0.2675-0.67
		l0.0412-0.1105l0.2357-0.5541l0.2864-0.6608l0.2962-0.6607l0.2964-0.6557l0.3012-0.6553l0.3107-0.6515l0.0185-0.0432l0.3018-0.6034
		l0.3301-0.6465l0.3298-0.6416l0.3347-0.6375l0.3396-0.6372l0.3446-0.6374l0.3493-0.6327l0.3493-0.6327l0.3543-0.6274l0.7178-1.2516
		l0.5413-0.9129l0.1914-0.3239l0.747-1.2327l0.7521-1.218l0.7612-1.2132l0.7715-1.1992l0.6678-0.1684L386.8263,164.5111z"/>
	<path class="st0" d="M400.4195,137.3314l-0.5887,0.9472l-0.5835,0.9575l-0.5788,0.9567l-0.2894,0.488l-0.2849,0.4782
		l-0.5739,0.9664l-0.5644,0.9663l-0.5596,0.976l-0.5495,0.9756l-0.508,0.9081l-0.0417,0.0723l-0.5545,0.9758l-0.5502,0.9759
		l-0.5452,0.9801l-0.3113,0.5793l-0.2289,0.3963l-0.5401,0.9755l-0.5354,0.9802l-0.2702,0.5017l-0.4149,0.3995l-0.6623,0.2064
		l-0.2068-0.6624l0.0917-0.5708l0.2652-0.507l0.5254-0.9991l0.5308-0.9947l0.2233-0.4057l0.3312-0.5795l0.5639-0.9759l0.5694-0.9758
		l0.5787-0.9716l0.0417-0.0723l0.5559-0.885l0.6077-0.9522l0.6079-0.9527l0.6172-0.9484l0.6172-0.9429l0.309-0.4641l0.3136-0.4744
		l0.632-0.9292l0.6317-0.9337l0.6322-0.9242l0.5916-0.143L400.4195,137.3314z"/>
	<path class="st0" d="M409.4322,139.0114l-1.8795,2.9064l-1.889,2.9164l-1.5804,2.4516l-0.3039,0.4695l-1.894,2.9259l-1.8792,2.9302
		l-0.6311,0.9911l-1.2529,1.9443l-0.9398,1.4697l-0.9345,1.4702l-0.9302,1.4746l-0.243,0.3917l-0.692,1.0783l-0.9345,1.4702
		l-0.9301,1.4742l-0.9204,1.4748l-0.5376,0.8654l-0.3829,0.6137l-0.9156,1.4794l-0.9103,1.4838l-0.8964,1.4888l-0.8916,1.488
		l-0.1678,0.2856l-0.7138,1.2076l-0.8767,1.5028l-0.8628,1.5024l-0.848,1.5067l-0.8383,1.5166l-0.829,1.5209l-0.8094,1.5255
		l-0.6744,1.2982l-0.1251,0.2411l-0.6621,0.2114l-0.2161-0.6573l0.1204-0.2458l0.6546-1.3078l0.7856-1.5538l0.7994-1.5444
		l0.8143-1.5351l0.8232-1.5353l0.8334-1.5307l0.8479-1.5215l0.6897-1.231l0.1679-0.2899l0.8718-1.5125l0.8768-1.5072l0.8915-1.5029
		l0.8956-1.4979l0.3784-0.6188l0.5322-0.8698l0.9203-1.4841l0.9297-1.4842l0.9303-1.4746l0.6918-1.0833l0.2525-0.3868l0.9588-1.4609
		l0.9637-1.4606l0.9688-1.4514l1.2867-1.9257l0.6603-0.9722l1.966-2.8793l1.9664-2.8791l0.3187-0.4597l1.6574-2.4052l1.9621-2.86
		l1.9523-2.8645l0.5433-0.1377L409.4322,139.0114z"/>
	<path class="st0" d="M376.5069,191.6453l-1.7924,2.3689l-0.0983,0.1309l-1.694,2.2282l-1.1028,1.4442l-0.7285,0.897l-0.7565,0.9214
		l-0.1882,0.2229l-0.9167,1.0912l-0.0374,0.0438l-0.693,0.0873l-0.0825-0.6927l0.0331-0.0439l0.8342-1.1569l0.1732-0.2377
		l0.7033-0.9588l0.6801-0.9297l1.1127-1.4292l1.713-2.2194l0.0984-0.1309l1.8312-2.3313l0.822-0.1278L376.5069,191.6453z"/>
	<path class="st0" d="M357.0971,195.0622l-0.004,0.0292l-0.0328,0.6512l-0.0029,0.1534l-0.0049,0.2923l0.015,0.3493l0.0174,0.1863
		l0.0978,1.0712l0.0563,0.5639l0.109,1.1378l0.2096,2.0985l0.0052,0.0335l-0.3053,0.3732l-0.3688-0.3052l-0.0053-0.0291
		l-0.2189-2.1028l-0.123-1.133l-0.0616-0.5589l-0.1312-1.0703l-0.0219-0.1821l-0.0677-0.3386l-0.0667-0.2865l-0.0406-0.1478
		l-0.182-0.6244l-0.0099-0.0287l0.5025-0.6348L357.0971,195.0622z"/>
	<path class="st0" d="M403.7066,179.5853l-1.418,1.1997l-1.4227,1.195l-0.5482,0.4586l-0.8838,0.7321l-1.4326,1.1855l-0.6998,0.5757
		l-0.7422,0.6005l-1.452,1.1667l-0.6098,0.4833l-2.3282,1.798l-0.5342,0.4103l-2.4327,1.8334l-0.7195,0.5425l-2.2577,1.6817
		l-2.9771,2.2198l-0.0049-0.0003l-1.5154,1.0675l-0.0524,0.0345l-1.3593,0.9543l-0.109,0.0782l-0.6906-0.0894l0.0895-0.6911
		l0.1043-0.0829l1.2712-1.0728l0.0472-0.0393l1.4229-1.19l0.0049-0.0052l2.933-2.2811l2.2238-1.7245l0.7189-0.5521l2.4133-1.8522
		l0.5395-0.4055l2.3429-1.7744l0.6246-0.4597l1.4912-1.1003l0.7665-0.572l0.7291-0.5282l1.4915-1.1051l0.9179-0.6843l0.5728-0.4256
		l1.4816-1.1146l1.4761-1.124l0.6279,0.0333L403.7066,179.5853z"/>
	<path class="st0" d="M413.763,170.132l-1.3863,1.065l-1.2253,0.9384l-1.1361,0.8412l-1.1848,0.8035l-0.232,0.1569l-1.6591,1.0883
		l-0.6823,0.4271l-1.2994,0.8151l-0.7257,0.4515l-0.7063,0.1546l-0.6819-0.1425l0.1474-0.6777l0.4266-0.5856l0.706-0.4803
		l1.2603-0.8666l0.6631-0.4558l1.6496-1.0932l0.2322-0.1518l1.2042-0.7753l1.2142-0.7223l1.343-0.7634l1.5187-0.861l0.7963,0.0741
		L413.763,170.132z"/>
	<path class="st0" d="M417.2273,173.7217l-0.1398,0.5289l-1.5804,1.2261l-0.6625,0.5226l-0.1277,0.1026l-0.7848,0.6202
		l-0.7804,0.6297l-0.2603,0.2148l-0.5201,0.4149l-0.7754,0.6295l-0.4821,0.3955l-0.2932,0.2296l-0.7856,0.6248l-0.6099,0.4931
		l-0.1653,0.132l-0.7755,0.6245l-0.7658,0.6344l-0.0706,0.0634l-0.6905,0.5757l-0.756,0.6483l-0.7413,0.6624l-0.3635,0.336
		l-0.3066,0.2874l-0.0568,0.0536l-0.6945-0.0085l0.0085-0.6946l0.0521-0.0582l0.2967-0.3013l0.3582-0.3596l0.7171-0.7101
		l0.7361-0.6959l0.6701-0.6235l0.0706-0.0634l0.7611-0.6677l0.765-0.6584l0.1657-0.1412l0.6192-0.5026l0.7901-0.6252l0.2979-0.2343
		l0.5113-0.3766l0.8188-0.5872l0.5449-0.3917l0.2792-0.1907l0.8389-0.5687l0.8339-0.563l0.1329-0.0884l0.7058-0.4705l1.6681-1.1078
		L417.2273,173.7217z"/>
	<path class="st0" d="M425.1484,165.187l-0.6907,0.5327l-0.6763,0.5418l-0.6615,0.5516l-0.6618,0.5701l-0.6902-0.0656l0.0612-0.6904
		l0.6858-0.5517l0.6954-0.5374l0.7053-0.5279l0.7148-0.5186l0.6142,0.0811L425.1484,165.187z"/>
	<path class="st0" d="M378.45,200.2668l-0.0614,0.0391l-0.7256,0.4757l-0.7724,0.5196l-0.7673,0.5288l-0.7671,0.5338l-0.7344,0.514
		l-0.7912,0.5582l-0.7667,0.5384l-0.7676,0.5336l-0.7344,0.5046l-0.0377,0.0294l-0.7868,0.5198l-0.7871,0.5098l-0.7635,0.4715
		l-0.0381,0.0248l-0.4176,0.2312l-0.3749,0.2071l-0.0381,0.0193l-0.4274,0.2173l-0.4229,0.2076l-0.1429,0.0695l-0.2896,0.1386
		l-0.4329,0.1981l-0.4376,0.1935l-0.3708,0.1587l-0.0669,0.0253l-0.6592-0.2247l0.2294-0.6546l0.0617-0.0345l0.3463-0.1922
		l0.4032-0.2309l0.3986-0.2361l0.2655-0.1621l0.1328-0.0785l0.3939-0.2407l0.3887-0.2456l0.0379-0.0244l0.3557-0.2209l0.3892-0.2454
		l0.0374-0.0246l0.7547-0.4525l0.7824-0.4858l0.7821-0.4959l0.0381-0.0292l0.7393-0.4757l0.782-0.5052l0.7776-0.5147l0.8102-0.5396
		l0.7489-0.49l0.787-0.5148l0.7917-0.5101l0.8011-0.5009l0.7403-0.4522l0.0614-0.0391l0.7015,0.1564L378.45,200.2668z"/>
	<path class="st0" d="M364.2582,192.4856l-0.1016,2.1036l-0.0553,1.0541l-0.0603,1.0543l-0.0605,1.0493l-0.0697,1.0544
		l-0.0747,1.0545l-0.0845,1.0501l-0.4534,0.3994l-0.3902-0.4585l0.0653-1.049l0.0602-1.0499l0.0511-1.0492l0.0456-1.0492
		l0.0417-1.0491l0.0363-1.0491l0.0677-2.1029l0.5102-0.4722L364.2582,192.4856z"/>
	<path class="st0" d="M341.8178,181.9503l0.4716,0.4764l0.2581,0.259l0.8074,0.8349l0.0487,0.0471l0.4202,0.5492l0.4547,0.6055
		l0.4546,0.606l0.4499,0.6107l0.4453,0.6154l0.4402,0.6156l0.3771,0.5401l0.0587,0.0852l0.8622,1.2507l0.8478,1.2604l0.8331,1.2655
		l0.8293,1.2749l0.6232,0.9863l0.1911,0.2986l0.8004,1.2853l0.7957,1.29l0.7859,1.2899l0.7811,1.2951l1.4842,2.4763l0.0641,0.1045
		l-0.2662,1.0671l-1.0671-0.2662l-0.0636-0.1043l-1.489-2.4711l-0.781-1.2857l-0.7862-1.285l-0.7902-1.2806l-0.8005-1.2754
		l-0.1911-0.2986l-0.6186-0.9772l-0.8144-1.2656l-0.8237-1.2561l-0.8379-1.2509l-0.8522-1.2412l-0.059-0.0804l-0.3671-0.535
		l-0.4263-0.616l-0.4355-0.6109l-0.4352-0.6064l-0.4404-0.6057l-0.445-0.601l-0.4106-0.5443l-0.0298-0.0571l-0.3882-0.6452
		l-0.2108-0.3318l-0.1821-0.3087l-0.3582-0.5639l-0.0445-0.0712l0.0807-0.6908l0.6906,0.0756L341.8178,181.9503z"/>
</g>
<g transform="matrix(0.987069,-0.160294,0.160294,0.987069,-61.3069,20.6961)">
	<g transform="matrix(1.17519,-0.738162,0.773369,1.23124,-320.121,-17.1851)">
		<path class="st2" d="M193.0974,358.4833c0.6212-1.8477,1.4168-3.5781,2.4486-4.9054c0,0,0.8521-0.8885,1.8728-0.8368
			c6.1505,1.0822,2.6763,7.3912,0.9027,11.9752c16.0087,13.7825,20.5939,49.7333-3.1855,45.9861
			c-14.2468-2.2459-21.4223-24.317-15.5902-40.2457c-2.5389-1.8491-6.206-3.9014-4.6955-8.4819c0,0,0.3524-1.3025,2.2197-1.2821
			c1.8792,0.1349,3.6831,1.2574,5.2185,2.6376c-2.0394-2.6367-3.3254-5.4857-1.3573-7.2336c0,0,0.7811-0.557,1.6443-0.4694
			c1.7342,0.3622,3.0825,1.429,4.174,2.9068c-0.0413-0.4876-0.0545-1.0047-0.0397-1.5652c0.0353-1.3794,0.7073-2.7538,2.6611-2.7205
			C191.3802,354.4294,192.5005,356.2034,193.0974,358.4833z M186.2351,398.2563c0.301,0.5651,0.6259,1.1109,0.9647,1.6279
			c-0.1881-0.3802-0.4051-0.7697-0.6653-1.1727C186.4312,398.5599,186.3332,398.408,186.2351,398.2563z M180.8527,367.1863
			c-0.5728-0.7719-1.3998-1.8752-1.0422-1.3777c3.817,5.1049-0.7545-1.0519,0,0l1.0374,1.3875L180.8527,367.1863z
			 M183.3696,357.9471 M189.9662,357.2991 M189.9849,357.2606 M198.2908,356.0367"/>
	</g>
	<path class="st0" d="M182.2929,306.6731l0.0542,0.0996l0.3053,0.5504l0.3642,0.6455l0.3741,0.6407l0.3738,0.6454l0.3784,0.6357
		l0.1768,0.2896l0.2064,0.346l0.388,0.6355l0.3884,0.6356l0.3974,0.6261l0.0243,0.0379l0.3685,0.5976l0.3974,0.6257l0.3974,0.6257
		l0.2111,0.3225l0.1916,0.3032l0.3974,0.631l0.4021,0.6208l0.4069,0.626l0.4116,0.6158l0.3334,0.4928l0.0835,0.1231l0.4164,0.6162
		l0.4211,0.6109l0.4258,0.6064l0.431,0.606l0.4352,0.5966l0.44,0.5966l0.1127,0.1465l0.3326,0.4496l0.4494,0.5868l0.4542,0.5867
		l0.4593,0.5819l0.4636,0.5769l0.4687,0.5721l0.473,0.5672l0.4778,0.567l-0.0459,0.7428l-0.743-0.0555l-0.4969-0.5619
		l-0.4924-0.5625l-0.4874-0.5669l-0.4828-0.5766l-0.4784-0.5767l-0.4733-0.5815l-0.4686-0.5864l-0.3516-0.4449l-0.1127-0.1465
		l-0.4592-0.5962l-0.4544-0.5963l-0.4449-0.606l-0.4454-0.6057l-0.4402-0.611l-0.4356-0.6154l-0.0834-0.1235l-0.3426-0.4973
		l-0.4213-0.6205l-0.4118-0.6307l-0.4119-0.6302l-0.4075-0.6304l-0.196-0.3083l-0.2017-0.3318l-0.3833-0.6456l-0.3835-0.65
		l-0.3541-0.6169l-0.0199-0.0328l-0.3645-0.6599l-0.3597-0.66l-0.3549-0.6601l-0.1923-0.3655l-0.1579-0.2995l-0.3407-0.6696
		l-0.3358-0.6653l-0.3359-0.6696l-0.3311-0.6702l-0.2773-0.5702l-0.0495-0.1045l0.1786-0.5535L182.2929,306.6731z"/>
	<path class="st0" d="M201.5936,331.496l0.5607,0.3454l0.0482,0.0326l0.3383,0.2058l0.2857,0.192l0.0195,0.0188l0.5478,0.4463
		l0.3055,0.2444l0.2618,0.2159l0.5674,0.4651l0.3005,0.2348l0.2714,0.221l0.5768,0.4553l0.5619,0.4321l0.0243,0.0187l0.1166,0.7114
		l-0.7166,0.1114l-0.0243-0.0139l-0.5902-0.4023l-0.6098-0.4264l-0.2908-0.2063l-0.3195-0.2249l-0.6004-0.4409l-0.276-0.2061
		l-0.3151-0.2442l-0.5574-0.4461l-0.0244-0.0187l-0.2528-0.2502l-0.2676-0.2925l-0.0392-0.0424l-0.4386-0.5007l-0.0195-0.0188
		l-0.0517-0.5835l0.5832-0.047L201.5936,331.496z"/>
	<path class="st0" d="M193.4086,315.5402l0.2016,0.3513l0.2111,0.3412l0.2209,0.3367l0.23,0.3316l0.2395,0.3267l0.2447,0.3267
		l0.2585,0.3167l0.259,0.3216l0.2046,0.2362l0.0682,0.0754l0.2729,0.3164l0.2779,0.3072l0.2872,0.3114l0.287,0.3022l0.2971,0.3065
		l0.2964,0.2972l0.3014,0.3015l0.6173,0.5888l0.0293,0.0287l0.5833,0.5703l0.6169,0.5936l0.0537,0.047l0.5637,0.5467l0.6125,0.5889
		l0.2092,0.2026l0.3937,0.3865l0.5933,0.5893l0.5741,0.5897l0.0237,0.622l-0.6274-0.0045l-0.5975-0.5556l-0.6117-0.551
		l-0.4124-0.3621l-0.2186-0.1929l-0.6358-0.5601l-0.5872-0.5222l-0.0537-0.047l-0.6406-0.5791l-0.6071-0.5602l-0.0293-0.0282
		l-0.6224-0.6079l-0.3062-0.3066l-0.3064-0.311l-0.2968-0.3164l-0.2973-0.316l-0.2921-0.3213l-0.2875-0.3258l-0.2828-0.3306
		l-0.0682-0.0806l-0.2051-0.255l-0.2688-0.3362l-0.259-0.3455l-0.2543-0.3456l-0.2401-0.3554l-0.2353-0.3551l-0.2258-0.3653
		l-0.2162-0.3655l-0.1725-0.3084l-0.0295-0.0617l0.1858-0.6732L193.4086,315.5402z"/>
	<path class="st0" d="M187.1945,300.0858l0.304,0.4597l0.3038,0.4501l0.3134,0.45l0.318,0.4402l0.3276,0.4401l0.3275,0.4405
		l0.3323,0.4352l0.3418,0.4302l0.3416,0.4258l0.3464,0.4258l0.3516,0.4205l0.356,0.4203l0.3606,0.4159l0.3606,0.4159l0.3654,0.4106
		l0.3701,0.4061l0.3753,0.4061l0.37,0.4061l0.7591,0.8023l0.769,0.7921l0.7732,0.7876l0.7782,0.778l0.7825,0.773l0.7877,0.7682
		l0.7875,0.7639l0.0124,0.5071l-0.5073,0.008l-0.7922-0.7589l-0.792-0.7681l-0.7926-0.7729l-0.7874-0.7777l-0.7831-0.7827
		l-0.7782-0.7971l-0.7691-0.8022l-0.3797-0.4055l-0.3796-0.4063l-0.375-0.4104l-0.375-0.4156l-0.3654-0.4158l-0.3707-0.4154
		l-0.3608-0.4255l-0.3561-0.4251l-0.356-0.4256l-0.3513-0.4305l-0.3467-0.4349l-0.342-0.4398l-0.3372-0.4451l-0.3325-0.4448
		l-0.3278-0.4496l-0.3229-0.4502l-0.3136-0.4595l-0.3088-0.4596l0.1111-0.5714L187.1945,300.0858z"/>
	<path class="st0" d="M207.3444,323.5069l0.5114,0.5525l0.5158,0.5471l0.5305,0.5426l0.5395,0.5327l0.5399,0.5324l0.549,0.5278
		l0.5541,0.5229l1.1173,1.0456l1.1219,1.0359l1.1171,1.036l0.5541,0.5229l0.5537,0.5229l0.0138,0.5599l-0.5599,0.0134
		l-0.5492-0.5182l-0.5541-0.5177l-1.1171-1.0312l-1.1267-1.0359l-1.1221-1.046l-0.5589-0.5224l-0.5538-0.5325l-0.5543-0.5325
		l-0.5444-0.5422l-0.5349-0.5472l-0.5307-0.5517l-0.5208-0.5619l-0.5117-0.5617l0.0341-0.5848l0.5847,0.0293L207.3444,323.5069z"/>
	<path class="st0" d="M212.2934,335.151l0.5947,0.393l0.5951,0.3879l0.5998,0.3834l0.604,0.3785l0.6092,0.3737l0.609,0.364
		l0.6133,0.3591l0.6185,0.3591l0.6231,0.3494l0.623,0.345l0.623,0.3446l0.6324,0.3348l0.6271,0.33l0.6371,0.3304l0.6371,0.3252
		l0.1406,0.4193l-0.4237,0.1359l-0.6416-0.3159l-0.6422-0.3203l-0.6413-0.3206l-0.6371-0.33l-0.6372-0.3347l-0.6324-0.3348
		l-0.6326-0.3448l-0.6279-0.3493l-0.6231-0.3494l-0.6229-0.3589l-0.6233-0.3642l-0.614-0.3683l-0.6136-0.3783l-0.6141-0.3784
		l-0.6042-0.3881l-0.6048-0.3929l-0.1143-0.5728l0.5728-0.1143L212.2934,335.151z"/>
	<path class="st0" d="M206.8408,314.4661l0.1549,0.1221l0.7613,0.5961l0.7561,0.601l0.7514,0.6063l0.1745,0.1457l0.5676,0.4747
		l0.7375,0.6301l0.7327,0.6302l0.7233,0.64l0.364,0.3199l0.3546,0.3297l0.7046,0.6643l0.6995,0.6687l0.6951,0.6741l0.6904,0.6742
		l0.1264,0.1318l0.5499,0.5566l0.6759,0.6883l0.6667,0.6938l0.0109,0.6986l-0.6942-0.0132l-0.6902-0.6642l-0.6949-0.6597
		l-0.5686-0.5323l-0.131-0.1221l-0.6996-0.6548l-0.709-0.6451l-0.709-0.645l-0.7184-0.6353l-0.364-0.3151l-0.3545-0.3201
		l-0.7137-0.6401l-0.7184-0.6353l-0.723-0.6256l-0.5629-0.4796l-0.165-0.1459l-0.7278-0.6255l-0.7324-0.6158l-0.7323-0.611
		l-0.1554-0.127l-0.5209-0.5667l-0.0665-0.5781l0.5833-0.0665L206.8408,314.4661z"/>
	<path class="st0" d="M222.9799,329.9153l0.3838,0.6644l0.3932,0.6594l0.3979,0.6549l0.3979,0.6545l0.8103,1.3087l0.8197,1.3042
		l-0.0875,0.5278l-0.5191-0.1308l-0.8719-1.2696l-0.8719-1.2744l-0.4311-0.6351l-0.4313-0.6395l-0.4313-0.6447l-0.4219-0.6493
		l0.1662-0.6968L222.9799,329.9153z"/>
	<path class="st0" d="M195.7585,298.1576l0.4785,0.2846l0.5654,0.3409l0.5655,0.3457l0.556,0.3503l0.5608,0.3506l0.5561,0.355
		l0.5514,0.3604l0.4985,0.3274l0.0529,0.033l0.5468,0.3696l0.5421,0.3745l0.5421,0.3745l0.5421,0.3797l0.3049,0.2155l0.2278,0.1687
		l0.5323,0.389l0.528,0.3944l0.5282,0.3987l0.4844,0.366l0.5526,0.4462l1.0186,0.8318l0.7177,0.5969l0.2912,0.249l0.9948,0.8658
		l0.9854,0.8703l0.1748,0.1601l0.8012,0.7252l0.9666,0.8899l0.9619,0.8947l0.0649,0.813l-0.8085,0.0269l-0.9946-0.8513
		l-1.0041-0.8464l-0.8249-0.686l-0.1794-0.1456l-1.0039-0.8368l-1.0132-0.8222l-0.3006-0.2397l-0.713-0.5826l-1.0131-0.8174
		l-0.5524-0.4366l-0.4659-0.3804l-0.504-0.4139l-0.5091-0.4035l-0.5092-0.4087l-0.2177-0.1693l-0.291-0.2346l-0.5139-0.4038
		l-0.5138-0.399l-0.5186-0.3989l-0.518-0.3945l-0.0486-0.0327l-0.47-0.3611l-0.5231-0.3896l-0.5279-0.3844l-0.5278-0.3796
		l-0.5325-0.3799l-0.5372-0.3698l-0.5416-0.3696l-0.4597-0.309l-0.0821-0.0564l-0.1286-0.5677l0.5677-0.1282L195.7585,298.1576z"/>
	<path class="st0" d="M214.8475,307.4285l0.9161,1.0534l0.9118,1.0587l0.9023,1.0633l0.9021,1.0676l0.9024,1.0685l1.7947,2.1315
		l-0.0258,0.4883l-0.4893-0.0495l-1.8231-2.1122l-0.9117-1.0535l-0.9165-1.0534l-0.916-1.0486l-0.9211-1.0442l-0.9306-1.034
		l-0.9353-1.0339l0.0294-0.5799l0.5847,0.0293L214.8475,307.4285z"/>
	<path class="st0" d="M221.5848,310.9055l0.0536,0.0661l0.6105,0.7855l0.6456,0.8564l0.6257,0.8476l0.3086,0.4309l0.3081,0.426
		l0.2985,0.4262l0.2646,0.3838l0.0292,0.0426l0.2894,0.4313l0.2843,0.4361l0.2794,0.4314l0.2747,0.4363l0.2705,0.4408l0.1473,0.2469
		l0.118,0.1944l0.2557,0.4462l0.2559,0.4506l0.2467,0.4561l0.2415,0.4561l0.0936,0.1756l0.1385,0.2898l0.2274,0.4655l0.218,0.4753
		l0.1987,0.4522l0.0146,0.028l0.2041,0.4857l0.1991,0.4901l0.1895,0.4951l0.1448,0.3852l0.0449,0.1142l0.1754,0.5097l0.1755,0.5145
		l0.1661,0.519l0.1613,0.5244l-0.1946,0.4196l-0.4104-0.214l-0.1899-0.5142l-0.1897-0.4994l-0.199-0.4905l-0.2038-0.49
		l-0.0496-0.1093l-0.1589-0.3709l-0.2132-0.4754l-0.223-0.4657l-0.2225-0.4661l-0.015-0.0281l-0.2122-0.4279l-0.2272-0.4559
		l-0.2371-0.4515l-0.1479-0.2753l-0.0887-0.1709l-0.2413-0.4465l-0.2418-0.4461l-0.246-0.4368l-0.2556-0.4366l-0.1132-0.1944
		l-0.1429-0.2419l-0.2603-0.4318l-0.265-0.4317l-0.2703-0.4312l-0.2746-0.4267l-0.2842-0.4313l-0.0247-0.0379l-0.2551-0.3888
		l-0.2889-0.4264l-0.2937-0.4263l-0.299-0.4263l-0.6066-0.8527l-0.6264-0.8568l-0.5964-0.795l-0.0487-0.0666l0.0821-0.5805
		L221.5848,310.9055z"/>
	<path class="st0" d="M222.9321,323.108l0.6391,0.7754l0.6391,0.7754l0.6395,0.7702l0.317,0.3927l0.3126,0.3877l0.3076,0.3972
		l0.3079,0.3978l0.3029,0.4022l0.2938,0.4072l0.2936,0.4167l0.284,0.4217l0.275,0.4268l0.2699,0.4312l-0.0892,0.418l-0.4182-0.0988
		l-0.2744-0.4171L226.753,329l-0.2885-0.4024l-0.2936-0.3976l-0.3027-0.3926l-0.3078-0.3882l-0.3077-0.383l-0.3169-0.3827
		l-0.3219-0.3735l-0.322-0.3779l-0.6579-0.751l-0.6675-0.7509l-0.6627-0.7562l0.0436-0.5845L222.9321,323.108z"/>
	<path class="st0" d="M205.9785,295.2274l0.2246,0.3034l0.225,0.293l0.2392,0.2884l0.2387,0.2835l0.2486,0.2838l0.2533,0.2737
		l0.2581,0.2736l0.2576,0.2687l0.2675,0.2643l0.2676,0.2686l0.5441,0.523l1.1083,1.0555l-0.0359,0.7858l-0.785,0.0264
		l-1.0416-1.1185l-0.526-0.5618l-0.258-0.2879l-0.2584-0.288l-0.2533-0.2928l-0.2489-0.2982l-0.249-0.2974l-0.2439-0.3026
		l-0.2348-0.3129l-0.2344-0.3123l-0.2255-0.3218l-0.2154-0.3223l0.1014-0.576L205.9785,295.2274z"/>
</g>
</svg>
