<?xml version="1.0" encoding="utf-8"?>
<!-- Generator: Adobe Illustrator 24.0.2, SVG Export Plug-In . SVG Version: 6.00 Build 0)  -->
<svg version="1.1" id="Layer_1" xmlns="http://www.w3.org/2000/svg" xmlns:xlink="http://www.w3.org/1999/xlink" x="0px" y="0px"
	 viewBox="0 0 512 512" style="enable-background:new 0 0 512 512;" xml:space="preserve">
<style type="text/css">
	.st0{fill:#C5E9F9;}
	.st1{fill-rule:evenodd;clip-rule:evenodd;fill:#5B6048;}
	.st2{fill-rule:evenodd;clip-rule:evenodd;fill:#FC9F9F;}
	.st3{fill-rule:evenodd;clip-rule:evenodd;fill:#FFCACA;}
	.st4{fill-rule:evenodd;clip-rule:evenodd;fill:#002807;}
	.st5{fill-rule:evenodd;clip-rule:evenodd;fill:#FCC3C3;}
</style>
<circle class="st0" cx="256.3281" cy="255.9678" r="248.873"/>
<polygon class="st1" points="333.7171,204.5689 331.7412,205.3073 331.5332,205.7191 331.3256,206.1266 331.1167,206.5252 
	330.9039,206.9241 330.6869,207.3235 330.4695,207.7182 330.2469,208.109 330.0251,208.4998 329.5624,209.2742 329.0911,210.0404 
	328.61,210.7981 328.1194,211.5437 327.6156,212.286 327.1028,213.0201 326.5801,213.7457 326.0844,214.413 326.0485,214.4635 
	325.5082,215.1818 324.9625,215.892 324.4081,216.594 323.8444,217.2921 323.2716,217.9822 322.6942,218.6679 322.1073,219.3507 
	321.5119,220.0292 320.916,220.7029 320.8184,220.8104 320.3159,221.3775 319.7157,222.0565 319.1066,222.7272 318.4928,223.3937 
	317.8746,224.0606 317.2523,224.728 317.0164,224.9801 316.6427,225.3987 315.4266,226.7707 314.2006,228.1302 312.9622,229.4948 
	311.7144,230.8552 309.2073,233.5914 307.9561,234.9697 306.7061,236.3571 306.0812,237.0552 305.4609,237.7572 304.8454,238.4593 
	304.2298,239.1651 303.6151,239.88 303.0043,240.594 302.3986,241.3127 301.7976,242.0396 301.2009,242.7707 300.6093,243.5057 
	300.0225,244.2449 299.4403,244.9923 298.8628,245.7435 298.2948,246.5034 297.731,247.267 297.1767,248.0388 296.6279,248.8192 
	296.0873,249.6029 295.5522,250.3996 295.4182,250.6055 295.0351,251.1996 294.4666,252.0857 293.9072,252.9713 293.3563,253.8566 
	292.8101,254.7414 292.272,255.6257 291.7382,256.505 291.2091,257.3885 290.689,258.2716 290.1728,259.1499 289.6604,260.0283 
	289.1574,260.9101 288.6587,261.7872 288.1686,262.6682 287.6785,263.5444 287.2012,264.4202 286.7243,265.3003 286.2556,266.1757 
	285.7916,267.0502 285.3323,267.929 284.8807,268.8027 284.4342,269.6764 283.992,270.5543 283.5584,271.4271 283.1291,272.3033 
	282.7044,273.1758 282.2837,274.052 281.8723,274.9274 281.4605,275.8032 281.0573,276.6781 280.663,277.5522 280.2688,278.4268 
	279.8831,279.3004 279.5017,280.1741 279.125,281.0516 278.7526,281.9244 278.3887,282.8011 278.0253,283.6778 277.6704,284.554 
	277.3199,285.4298 276.974,286.3047 276.632,287.1844 276.299,288.0589 275.9663,288.9377 275.6419,289.8161 275.3178,290.6945 
	275.0028,291.5767 274.8709,291.9479 274.6916,292.4538 274.3851,293.3352 274.0829,294.2166 273.7854,295.1018 273.4964,295.9823 
	273.2075,296.8667 272.9233,297.7511 272.6472,298.6346 272.3719,299.5228 272.1005,300.4063 271.8381,301.2932 271.5762,302.1849 
	271.3223,303.0714 271.0689,303.9622 270.8245,304.8568 270.5797,305.7472 270.3442,306.6414 270.1083,307.5356 269.8815,308.4333 
	269.6546,309.3271 269.4324,310.229 269.2146,311.1258 269.001,312.0273 268.7921,312.9283 268.5875,313.8333 268.3875,314.7382 
	268.1915,315.6427 268.0006,316.551 267.8097,317.4594 267.623,318.372 267.4454,319.2838 267.2677,320.1959 267.0948,321.112 
	266.9261,322.0276 266.7575,322.9475 266.5978,323.867 266.4382,324.7864 266.2828,325.7098 266.1325,326.6374 265.9861,327.5645 
	265.8402,328.4917 265.6989,329.4232 265.5619,330.3585 265.4292,331.2891 265.3017,332.2287 265.1737,333.1674 265.0504,334.1061 
	264.9314,335.0534 264.7966,336.1416 264.6985,336.9429 264.4794,338.8405 264.2739,340.7505 264.0779,342.6725 263.9002,344.5482 
	263.7949,342.5565 263.6395,339.7805 263.4756,337.0054 263.2941,334.2311 263.0997,331.4578 263.0004,330.0713 262.8921,328.6852 
	262.7842,327.2996 262.6721,325.9182 262.5552,324.5326 262.4345,323.1521 262.3134,321.7669 262.1837,320.3873 262.0497,319.0029 
	261.9157,317.6233 261.7732,316.2441 261.6306,314.8649 261.4791,313.4861 261.3237,312.1078 261.1636,310.7298 261.0039,309.3562 
	260.8353,307.9791 260.6624,306.6059 260.4813,305.234 260.2998,303.862 260.114,302.4901 259.9197,301.1186 259.7211,299.748 
	259.5182,298.3816 259.3456,297.2665 259.3067,297.0157 259.0862,295.6506 258.8615,294.2859 258.6329,292.9213 258.3954,291.5617 
	258.1535,290.198 257.9031,288.8393 257.6527,287.4806 257.3894,286.1271 257.1262,284.7693 256.8501,283.4166 256.574,282.0644 
	256.285,280.7173 255.9957,279.3655 255.6982,278.0188 255.3921,276.6725 255.0813,275.3268 254.7624,273.9861 254.4345,272.6411 
	254.1028,271.3055 253.7616,269.9662 253.417,268.6315 253.0587,267.2933 252.6966,265.9642 252.3306,264.6308 251.9509,263.303 
	251.5674,261.9751 251.1753,260.6524 250.7789,259.3297 250.3697,258.0083 249.9557,256.6873 249.5294,255.371 249.2918,254.6446 
	249.0495,253.9186 248.5624,252.4803 248.2264,251.5249 248.0492,251.0481 247.5149,249.6256 246.9679,248.2087 246.4084,246.8013 
	245.8361,245.3951 245.2514,243.9979 244.6576,242.6059 244.0515,241.2151 243.4368,239.8329 242.8101,238.461 242.1702,237.0895 
	241.5217,235.7235 240.865,234.3619 240.2003,233.0096 239.5265,231.6582 239.4816,231.5739 238.8275,230.3171 238.1203,228.9854 
	237.4093,227.6585 236.685,226.3319 235.9573,225.0148 235.2202,223.6985 234.4754,222.3869 233.7224,221.0843 232.9648,219.7822 
	232.199,218.4852 231.4289,217.1924 230.6503,215.9005 229.8678,214.6176 229.081,213.3352 228.2857,212.0574 227.4912,210.7839 
	227.4034,210.6504 226.6792,209.516 225.8633,208.2533 225.0431,206.9948 224.2234,205.7405 223.3951,204.4872 222.5668,203.2377 
	221.7299,201.989 220.8978,200.7447 220.0571,199.505 218.3718,197.0304 216.6831,194.5648 215.2046,192.43 214.9816,192.109 
	213.2642,189.6716 211.5468,187.2428 208.1138,182.3985 206.4306,180.0197 204.3319,177.8225 202.3213,175.6278 200.3685,173.3985 
	197.881,172.9139 197.3965,175.4061 198.7397,178.0528 200.0423,180.7414 201.3188,183.4973 202.9189,185.9428 206.1721,190.9001 
	207.7919,193.3833 209.4087,195.8716 209.6231,196.1978 211.0332,198.3548 212.6491,200.8384 214.2569,203.3314 215.0543,204.5784 
	215.8518,205.8249 216.6407,207.0769 217.4296,208.329 218.2147,209.5854 218.9908,210.8426 219.7673,212.0998 220.5348,213.3574 
	221.2197,214.4901 221.2984,214.6198 222.0664,215.8821 222.8253,217.1445 223.58,218.4072 224.3265,219.6752 225.0688,220.9435 
	225.8068,222.2166 226.5323,223.4943 227.2575,224.7725 227.9697,226.0515 228.6778,227.3353 229.3729,228.6199 230.0647,229.9135 
	230.7466,231.2028 231.4212,232.5024 232.0868,233.8015 232.6989,235.0219 232.7392,235.1024 233.4005,236.402 234.049,237.7076 
	234.689,239.0132 235.3204,240.3239 235.9389,241.6397 236.5493,242.9612 237.1469,244.2869 237.7359,245.6134 238.3121,246.946 
	238.8797,248.2828 239.4345,249.6248 239.9768,250.9723 240.5059,252.3207 241.023,253.6785 241.1938,254.1339 241.5435,255.0316 
	242.0567,256.3988 242.3042,257.076 242.5516,257.7579 243.0007,259.0198 243.4454,260.2826 243.8773,261.5501 244.3049,262.818 
	244.724,264.091 245.1349,265.3688 245.5412,266.6465 245.9393,267.9256 246.3284,269.2089 246.7136,270.4974 247.0903,271.7863 
	247.458,273.0756 247.8219,274.37 248.1776,275.6688 248.5286,276.9684 248.871,278.2684 249.2054,279.5731 249.535,280.8782 
	249.8603,282.1885 250.1775,283.4984 250.49,284.8095 250.7943,286.125 251.0897,287.4413 251.3855,288.7622 251.668,290.0836 
	251.9514,291.4094 252.2253,292.7316 252.4954,294.0625 252.757,295.3899 253.0142,296.722 253.2672,298.0541 253.3147,298.3041 
	253.5202,299.391 253.7646,300.7282 254.0052,302.0659 254.2415,303.4079 254.4684,304.7464 254.6956,306.0892 254.9148,307.4368 
	255.1297,308.7852 255.3399,310.1331 255.5458,311.4819 255.7478,312.835 255.9404,314.1847 256.1339,315.5386 256.3188,316.8973 
	256.5033,318.2517 256.6797,319.6112 256.7354,320.0534 256.7221,320.0406 256.3813,319.7234 256.0367,319.4104 255.6926,319.1022 
	255.3446,318.803 254.9923,318.5085 254.64,318.2136 254.2843,317.9276 253.9243,317.6469 253.5647,317.3699 253.2013,317.1024 
	252.8379,316.8348 252.4706,316.5716 252.099,316.3173 251.7279,316.0634 251.3529,315.8182 250.9784,315.5776 250.6038,315.3366 
	250.2211,315.105 249.8427,314.8777 249.4562,314.6508 249.0739,314.4326 248.6882,314.2189 248.2979,314.0053 247.9083,313.8007 
	247.5141,313.5961 247.1207,313.4005 246.7277,313.2044 246.3301,313.0131 245.9329,312.8265 245.5317,312.6441 245.1306,312.4665 
	244.73,312.2931 244.6401,312.2559 244.3255,312.1245 243.9167,311.9601 243.5126,311.7957 243.1042,311.6403 242.6873,311.4854 
	241.8723,311.1874 241.0444,310.9032 240.2097,310.6374 239.375,310.3758 238.5368,310.1318 237.6953,309.8968 236.846,309.6755 
	235.9971,309.467 235.1492,309.2633 234.293,309.0728 233.4378,308.8913 232.5787,308.7188 231.7161,308.5596 230.8536,308.4046 
	229.9915,308.2539 229.1259,308.1169 228.2608,307.9838 227.3919,307.8601 226.5233,307.7407 225.6552,307.6251 224.7871,307.5147 
	223.9194,307.4124 223.0522,307.3148 222.1807,307.2167 221.908,307.1876 220.4453,307.0695 218.7112,306.9394 216.9823,306.8178 
	213.5506,306.5811 211.8473,306.4621 210.1488,306.3384 209.3543,306.2836 208.5517,306.2339 207.8069,306.2018 207.7542,306.1967 
	206.9623,306.177 206.1704,306.1569 205.3875,306.1406 203.8263,306.1166 202.2823,306.0871 201.5165,306.0653 200.755,306.043 
	199.9926,306.0079 199.2388,305.9677 198.4884,305.9189 197.7419,305.8611 197.2184,305.8093 196.691,305.7536 196.1628,305.698 
	195.8636,305.662 195.6269,305.6518 194.5404,305.6042 193.4485,305.5439 193.5238,305.5559 193.3873,305.5435 193.4938,305.5666 
	193.3436,305.5379 193.4061,305.5597 193.246,305.5182 193.282,305.5332 193.1129,305.4883 193.1308,305.4955 192.7743,305.3889 
	192.5825,305.332 192.3732,305.2768 192.151,305.222 191.9254,305.1766 191.7752,305.1518 191.6215,305.1402 191.4507,305.1347 
	191.2508,305.1483 191.0175,305.1903 190.7534,305.2828 190.4675,305.4467 190.3279,305.5786 190.2136,305.6954 190.1177,305.8243 
	190.0069,305.9891 189.8926,306.2981 189.851,306.5807 189.8476,306.7292 189.84,306.8696 189.881,307.1508 189.9684,307.4068 
	190.0647,307.6011 190.1772,307.7771 190.336,307.989 190.4974,308.1786 190.6584,308.3554 190.8142,308.5283 190.9747,308.7051 
	191.1404,308.8947 191.3112,309.0882 191.4871,309.2946 191.4918,309.2988 191.9528,309.5291 192.4447,309.7573 192.9493,309.9846 
	193.4536,310.208 193.9579,310.4225 194.879,310.8047 195.6209,311.1121 195.8777,311.2213 196.0618,311.3004 196.0352,311.2889 
	197.1396,311.7944 198.2573,312.2944 199.3835,312.7935 200.2657,313.1783 200.5179,313.2879 201.6646,313.7729 202.8204,314.2527 
	203.9796,314.7236 205.1465,315.1808 206.3176,315.6332 207.4918,316.0724 208.6698,316.4941 209.2648,316.7025 209.8598,316.9063 
	210.4501,317.1105 211.0443,317.3052 211.6427,317.4957 212.2364,317.6824 212.8297,317.8647 213.0733,317.9371 213.3686,318.1421 
	213.9962,318.5706 214.6327,318.9944 215.2726,319.4135 215.9164,319.8235 216.5688,320.2246 217.2289,320.6159 217.8881,320.99 
	218.2284,321.1762 218.5683,321.3586 218.9039,321.5366 219.2476,321.7096 219.5909,321.8782 219.9385,322.0421 220.2856,322.2014 
	220.6371,322.3568 220.9881,322.5074 221.343,322.6534 221.7021,322.7904 222.0655,322.9269 222.2265,322.986 222.4277,323.0549 
	222.7945,323.1786 223.2093,323.3071 223.6241,323.4316 224.0427,323.5472 224.4605,323.6538 224.8736,323.7565 225.2905,323.8503 
	225.7075,323.9397 226.1235,324.0202 226.5392,324.0926 226.9544,324.1602 227.3735,324.2231 227.7883,324.2818 228.2026,324.3365 
	228.6161,324.3824 229.03,324.4286 229.4384,324.4658 229.8519,324.5031 230.2684,324.5313 231.0847,324.5844 231.8998,324.6246 
	232.7144,324.6563 233.5238,324.679 234.329,324.6983 235.9248,324.7201 237.5073,324.7381 238.2898,324.7543 239.0689,324.7753 
	239.8394,324.801 240.6018,324.8361 241.365,324.8802 242.1197,324.9376 242.4891,324.9688 242.8628,325.009 243.2326,325.0493 
	243.5982,325.0942 243.9685,325.1383 244.3302,325.1922 244.6966,325.25 245.0549,325.313 245.4174,325.3797 245.7629,325.4478 
	246.131,325.5274 246.4726,325.6087 246.8369,325.7016 247.1755,325.7924 247.5363,325.8943 247.8707,325.9979 248.0671,326.0586 
	248.2375,326.1211 248.4301,326.1913 248.5958,326.2495 248.9733,326.4071 249.3158,326.5582 249.6766,326.7303 250.0118,326.9036 
	250.3662,327.1022 250.6894,327.294 251.0319,327.5106 251.3478,327.7251 251.6787,327.9601 251.9826,328.1925 252.3058,328.4455 
	252.5981,328.6964 252.9093,328.9677 253.1897,329.2323 253.4889,329.5216 253.7573,329.8046 254.0403,330.1085 254.3005,330.4009 
	254.5715,330.7189 254.8151,331.0254 255.0693,331.3571 255.3005,331.6735 255.5423,332.0146 255.7611,332.3404 255.9862,332.6918 
	256.1879,333.0232 256.3963,333.3845 256.5812,333.7256 256.7726,334.0925 256.9447,334.4392 257.0521,334.6673 257.145,334.8749 
	257.2443,335.1129 257.3333,335.3338 257.4292,335.5808 257.5101,335.8068 257.6013,336.0581 257.6788,336.2888 257.841,336.8102 
	257.9985,337.3239 258.1479,337.8461 258.2926,338.3649 258.3744,338.6697 258.4788,339.108 258.7044,340.0446 258.8123,340.465 
	258.8709,340.6884 258.9112,340.8254 258.9369,340.896 259.1038,342.8737 259.3234,345.6278 259.534,348.3828 259.7313,351.1382 
	259.9163,353.8992 260.0969,356.6602 260.1354,357.2864 260.269,359.422 260.4316,362.1843 260.5862,364.947 260.7317,367.7063 
	260.873,370.4702 261.0099,373.2342 261.1384,375.9991 261.2664,378.7596 261.3858,381.5206 261.6152,387.0344 261.8357,392.5444 
	261.9487,395.4321 261.893,396.2488 261.8489,396.8806 261.7971,397.5916 261.7017,398.9349 262.1053,399.4041 262.2697,403.5258 
	262.4915,408.9964 262.6045,411.7274 262.7217,414.4538 262.8425,417.1707 262.9717,419.8876 263.1006,422.5955 263.238,425.3025 
	263.3792,428.001 263.4593,429.4282 263.5287,430.6901 264.8852,431.9383 266.1193,430.5694 266.0722,429.3104 266.0178,427.8811 
	265.9249,425.1887 265.8402,422.4863 265.7644,419.7835 265.6921,417.0718 265.6236,414.3549 265.5637,411.6337 265.5076,408.9036 
	265.404,403.4377 265.3479,400.0966 266.302,399.2748 266.4018,397.9225 266.4532,397.2072 266.4964,396.5622 266.5863,395.2022 
	266.6723,393.838 266.7532,392.4738 266.8298,391.1061 266.9741,388.3704 267.1094,385.627 267.2404,382.884 267.3671,380.141 
	267.4972,377.3932 267.6371,374.6541 267.7853,371.9098 267.8619,370.5413 267.9471,369.1728 268.0327,367.809 268.1273,366.4439 
	268.2257,365.0831 268.3336,363.7219 268.3833,363.1115 268.5523,362.4488 268.7399,361.7459 268.9363,361.0422 269.1371,360.3385 
	269.3464,359.6339 269.5562,358.934 269.7745,358.2333 270.0013,357.5317 270.2291,356.8348 270.4649,356.1371 270.7102,355.4436 
	270.955,354.7498 271.2089,354.0555 271.4674,353.365 271.7307,352.6788 271.9978,351.9922 272.2743,351.3094 272.5551,350.6263 
	272.8402,349.9469 273.1304,349.2719 273.425,348.5964 273.7242,347.9252 274.0276,347.2583 274.3401,346.5905 274.6526,345.9266 
	274.9745,345.2669 275.3007,344.6069 275.6269,343.9558 275.9625,343.3034 276.3024,342.6558 276.6427,342.0124 276.9915,341.3682 
	277.6636,340.1474 278.3476,338.9124 279.0441,337.6676 279.753,336.4138 280.1429,335.7272 280.4742,335.1497 281.2036,333.8771 
	281.9459,332.5985 282.6971,331.3199 283.4608,330.0315 284.2283,328.743 285.0091,327.4532 285.7942,326.1588 286.5882,324.8686 
	287.3904,323.5776 288.202,322.29 289.0179,321.0028 289.8389,319.7234 290.6642,318.4525 291.4989,317.1854 292.3345,315.9226 
	292.4723,315.7172 293.1576,315.1936 294.1255,314.4677 295.1028,313.7455 295.8672,313.1779 297.059,312.2751 298.0427,311.526 
	299.0263,310.7731 300.0139,310.0107 301.0001,309.2359 301.9859,308.4517 302.9709,307.6594 303.0826,307.5643 303.4529,307.233 
	303.9255,306.8032 304.3942,306.3735 304.8702,305.9304 305.1125,305.6997 305.3539,305.4647 305.5953,305.2254 305.8321,304.9823 
	306.2884,304.5054 306.731,304.0166 307.1599,303.5196 307.5802,303.0235 307.9869,302.5197 308.3803,302.0167 308.7694,301.5094 
	309.1448,301.003 309.5164,300.4928 309.6478,300.3091 309.8746,299.9834 310.2278,299.4702 310.5732,298.9616 311.2509,297.9501 
	311.916,296.9523 312.5826,295.9673 312.9121,295.4862 313.2465,295.0093 313.5812,294.5406 313.9202,294.0762 314.2605,293.6207 
	314.6056,293.1734 314.951,292.7346 315.3058,292.304 315.6659,291.8862 316.0353,291.4723 316.4132,291.0665 316.6093,290.8649 
	316.5892,290.8884 316.6992,290.7758 316.7891,290.6825 317.1696,290.311 317.5592,289.9394 317.9658,289.5623 318.3896,289.1839 
	318.8224,288.8046 319.268,288.4202 319.7213,288.0311 320.1836,287.6411 321.1339,286.8467 322.1056,286.0419 323.0893,285.2278 
	323.5845,284.8095 324.0755,284.3871 324.5661,283.9645 325.0562,283.5335 325.5421,283.0986 325.5622,283.0755 326.0228,282.659 
	326.4987,282.2116 326.9701,281.76 327.4323,281.3046 327.8853,280.8367 328.3287,280.3611 328.7551,279.8864 328.9691,279.6356 
	329.175,279.3903 329.3805,279.1403 329.5816,278.886 329.7738,278.6326 329.9703,278.3749 330.1578,278.1172 330.3406,277.8557 
	330.5191,277.5903 330.6929,277.3206 330.8624,277.0514 331.0623,276.7188 331.1278,276.5921 331.2181,276.3802 331.2819,276.1623 
	331.2849,276.1443 331.3264,275.9187 331.3367,275.6867 331.317,275.4612 331.3157,275.4479 331.2519,275.1508 331.1406,274.8657 
	330.9827,274.6016 330.7875,274.3662 330.7828,274.3619 330.5645,274.1714 330.3265,274.0173 330.0653,273.9 329.7892,273.823 
	329.7807,273.8234 329.5204,273.7887 329.2585,273.7896 328.9991,273.8289 328.7795,273.8748 328.4781,274.0045 328.2928,274.0999 
	328.0488,274.239 327.634,274.495 327.4533,274.6033 327.5248,274.5592 327.3729,274.6393 327.4529,274.5943 326.2436,275.1752 
	325.6392,275.4659 325.0262,275.7655 324.0755,276.2368 323.1295,276.7077 322.1886,277.1871 321.7242,277.4242 321.2477,277.6712 
	320.3073,278.1592 319.3712,278.6515 318.4358,279.148 317.5087,279.6437 316.1731,280.3599 315.0092,280.9681 314.8419,281.0713 
	313.5449,281.8418 313.068,282.1239 312.9104,282.147 312.61,282.2202 312.3283,282.3182 312.0817,282.418 311.8531,282.5254 
	311.6387,282.6406 311.4281,282.7553 311.2222,282.879 311.0128,283.0066 310.6152,283.2565 310.2184,283.5241 309.4667,284.0301 
	309.1243,284.2586 308.8191,284.4543 308.6932,284.5326 308.5798,284.5972 308.4873,284.6473 308.3944,284.6974 307.8281,284.9722 
	307.2498,285.265 306.6719,285.5625 306.0983,285.8639 305.5255,286.1738 304.9618,286.4875 304.3938,286.806 303.8356,287.1326 
	303.2774,287.4635 302.7239,287.8025 302.1747,288.142 301.6264,288.4896 301.0827,288.8414 300.5442,289.2014 300.01,289.5614 
	299.4762,289.9296 298.6676,290.5006 297.8646,291.0797 297.0663,291.6675 296.2773,292.2672 295.4931,292.8716 294.7184,293.4833 
	293.9491,294.1087 293.188,294.7371 292.433,295.3788 291.6868,296.0281 291.4193,296.2648 290.9506,296.6903 290.2186,297.356 
	289.5008,298.0345 288.788,298.7206 288.0847,299.4201 287.39,300.1225 286.7055,300.8378 286.03,301.5608 285.3635,302.2924 
	285.2659,302.4032 285.2458,302.4229 284.6696,302.9995 284.1025,303.5847 283.5404,304.1732 282.9912,304.77 282.4472,305.3709 
	281.9168,305.9792 281.3911,306.5918 280.8788,307.212 280.3805,307.8404 280.3159,307.9235 279.8908,308.4722 279.4148,309.1122 
	278.9568,309.7551 278.726,310.0852 278.5034,310.4105 278.2428,310.8086 277.9817,311.2063 277.7299,311.6082 277.4817,312.0093 
	277.239,312.4147 277.0001,312.8196 276.7664,313.2289 276.537,313.6423 276.3118,314.055 276.0909,314.4677 275.8795,314.8842 
	275.668,315.3002 275.4604,315.7163 275.2575,316.1367 275.0597,316.5604 274.8658,316.9803 274.6766,317.408 274.4917,317.8313 
	274.3068,318.259 274.127,318.6909 273.7837,319.5436 273.4493,320.4052 273.1287,321.2704 273.0273,321.5576 272.758,322.1693 
	272.4789,322.8131 272.2088,323.4608 271.943,324.1122 271.6776,324.759 271.425,325.4097 271.1729,326.0651 270.9255,326.7196 
	270.6862,327.3736 270.4517,328.0316 270.2218,328.6895 269.9962,329.3474 269.7749,330.0083 269.5626,330.6697 269.3503,331.3306 
	269.1465,331.9954 269.1396,332.0176 268.9432,332.6602 268.7488,333.3288 268.5583,333.9927 268.3726,334.6605 268.1915,335.3326 
	268.0147,335.9995 268.0104,336.0144 268.0828,335.4622 268.2112,334.5359 268.3439,333.6053 268.4817,332.6833 268.6196,331.7604 
	268.7617,330.8379 268.9085,329.9193 269.0553,329.0054 269.2107,328.0906 269.3665,327.1759 269.5275,326.2693 269.6876,325.3588 
	269.8571,324.4517 270.0266,323.5489 270.2004,322.6461 270.3789,321.7472 270.5621,320.8479 270.7453,319.9532 270.9375,319.0577 
	271.1293,318.1622 271.3257,317.2706 271.5269,316.3836 271.7324,315.4915 271.9426,314.608 272.1523,313.7198 272.3715,312.8359 
	272.5911,311.9562 272.8141,311.0757 273.0423,310.1952 273.2794,309.3185 273.5161,308.4419 273.7576,307.5648 273.999,306.6924 
	274.249,305.8191 274.5041,304.9497 274.7635,304.0804 275.0268,303.2105 275.2904,302.3407 275.5631,301.4748 275.8401,300.6084 
	276.1217,299.7462 276.403,298.8794 276.6932,298.0164 276.9881,297.1578 277.2873,296.2944 277.5908,295.4353 277.8986,294.5753 
	278.2111,293.7153 278.3913,293.2226 278.5279,292.8592 278.8493,292.0031 279.1747,291.1465 279.5051,290.2896 279.8398,289.4369 
	280.1827,288.579 280.526,287.7255 280.8779,286.8715 281.2345,286.0171 281.5953,285.167 281.9609,284.3121 282.3303,283.4612 
	282.7087,282.6102 283.0871,281.7583 283.4745,280.9108 283.8658,280.0585 284.2621,279.2058 284.6624,278.357 285.0712,277.5081 
	285.4851,276.6584 285.8982,275.8049 286.3246,274.9543 286.7517,274.1085 287.1866,273.2571 287.6263,272.4061 288.0702,271.5547 
	288.5188,270.7071 288.9759,269.8544 289.437,269.0017 289.9031,268.1529 290.3774,267.2993 290.8564,266.4501 291.3397,265.5999 
	291.8315,264.7451 292.3238,263.8946 292.8285,263.0389 293.3336,262.1875 293.8472,261.3313 294.3652,260.4791 294.8917,259.6217 
	295.4225,258.7638 295.958,257.9107 296.5016,257.052 297.05,256.1933 297.6073,255.3342 298.1685,254.4743 298.7344,253.619 
	299.1111,253.0604 299.2416,252.8635 299.7498,252.1208 300.2711,251.3781 300.7976,250.647 301.3327,249.9163 301.8772,249.1929 
	302.4307,248.4737 302.9889,247.7627 303.5518,247.0517 304.1233,246.3441 304.7045,245.6447 305.2854,244.9456 305.8757,244.2496 
	306.4703,243.5583 307.0696,242.8708 307.6731,242.183 308.2814,241.4993 308.8944,240.8153 309.5112,240.1351 310.1285,239.4554 
	311.3771,238.1031 312.6335,236.75 315.1607,234.0481 316.4261,232.6903 317.6914,231.3282 318.9559,229.9619 320.2067,228.5831 
	320.5924,228.155 320.8227,227.8815 321.4156,227.1636 322.008,226.4372 322.5961,225.7159 323.1792,224.9857 323.7622,224.2511 
	324.2442,223.633 324.3362,223.5131 324.8961,222.7628 325.4517,222.0085 325.9984,221.2504 326.5441,220.488 327.0771,219.7218 
	327.6091,218.947 328.1327,218.1688 328.6468,217.3867 329.1519,216.5966 329.187,216.537 329.6467,215.7935 330.1334,214.9918 
	330.6111,214.1814 331.079,213.3634 331.5374,212.5368 331.9831,211.7025 332.4235,210.8644 332.8456,210.0186 333.0566,209.5892 
	333.263,209.1603 333.4654,208.7314 333.6671,208.2986 333.8644,207.8654 334.0575,207.4288 334.2501,206.9875 334.4337,206.5513 
	"/>
<path class="st2" d="M159.6091,133.4374c-0.6866-8.0642,0.5436-16.265,2.9703-22.9029c2.9147-7.9747,8.613-15.7586,17.4113-19.912
	c0.2067-0.0955,0.4144-0.1896,0.6232-0.2825c13.7536-6.0108,31.1888-3.8928,38.1992,7.3703c1.3381,2.148,2.2987,4.451,2.9296,6.8532
	c1.7379-1.0928,3.5743-2.0448,5.5036-2.8239c0,0,2.2871-1.2559,4.061-2.053c10.0628-4.4621,22.0121-4.2909,30.0091,2.3021
	c9.9442,8.1982,10.7327,23.1816,5.7788,36.2399c7.6297,1.3548,14.2672,5.2848,17.4811,12.5173
	c5.8987,13.2733,1.2833,31.215-10.3929,40.2928c-7.5231,5.8486-17.1665,9.0231-26.5508,9.3698
	c-1.7212,7.2462-5.7595,14.2839-12.519,19.2725c-12.1047,13.4137-36.701,16.3249-49.4948,5.8353
	c-0.8959-0.7341-1.7302-1.517-2.5067-2.3436c-0.7855,0.4019-1.5791,0.7859-2.3813,1.1506
	c-7.9324,3.6103-17.0051,5.0455-25.0488,3.2584c-3.9989-0.8882-8.6956-2.1043-11.5037-5.6277
	c-2.6095-2.0936-4.7074-4.6718-6.0973-7.569c-0.0578-0.0488-0.1143-0.0976-0.1712-0.1472
	c-4.6192-4.0015-6.4196-10.3145-4.1136-16.5856c1.7037-4.6316,5.0866-8.7269,8.9293-12.3084
	c-9.5624-1.1344-18.2734-5.938-20.8961-14.7946c-3.4668-11.7092,3.4651-26.0213,17.9618-32.6918
	c0.1614-0.0732,0.3223-0.1451,0.4841-0.217C146.3624,134.957,153.0799,133.535,159.6091,133.4374z M245.8468,164.6126
	c-0.247,0.1447-0.4948,0.2872-0.7444,0.4263c0.0175,0.0565,0.0347,0.1122,0.0526,0.1682
	C245.155,165.2072,244.718,166.1395,245.8468,164.6126z M169.7156,115.9354c-0.8189,3.8393-1.0184,7.7393-0.8702,11.365
	c0.0972,2.3809,0.3446,4.763,0.7859,7.0908c0.904,0.1943,1.7936,0.4191,2.6676,0.6729
	C170.0191,129.0584,169.2057,122.3832,169.7156,115.9354z M212.2176,101.5367c0.9576,2.2173,1.7174,4.5297,2.3642,6.8246
	c0,0,0.2517,0.5355,0.6117,1.3792l0.0343-0.0321C214.8052,106.8019,213.8314,103.9638,212.2176,101.5367z"/>
<g transform="matrix(1.13098,0,0.146181,1.16945,-197.878,-116.101)">
	<path class="st3" d="M322.2678,226.1172c-1.2516-4.2405-2.1757-8.5758-2.4875-13.077c-0.3699-5.3225,0.4044-10.7688,2.2005-16.0528
		c0.4207-0.242,1.2646-0.727,1.2646-0.727l0.7553,0.9356c-0.0786,0.2884-0.0786,0.2884-0.1539,0.5761
		c-2.5856,10.212-0.5081,20.3969,2.6145,29.7985c0.2068-0.3382,0.2974-0.4297,1.0829-0.4627l0.0022-0.0114l-0.1331-0.2826
		c0.0179-0.2939,0.0388-0.5871,0.0612-0.8803c0.0385-0.4854,0.0831-0.9711,0.1342-1.4568
		c-1.2611-7.5019-1.2958-15.2838,0.8109-22.9614l1.3489-0.9462l0.842,0.9557c-1.2203,4.7354-1.5898,9.492-1.3408,14.186
		c1.3479-4.821,3.4456-9.5564,6.475-13.999c2.2179-3.2533,4.9217-6.3302,7.8709-9.2501c0.5769-0.0999,1.1547-0.2009,1.7319-0.3009
		l0.1557,1.3576c-3.8315,4.2961-6.8009,9.0121-9.1247,13.6707c-1.6024,3.212-1.5762,3.489-1.9256,4.38
		c-1.4142,3.6087-2.382,7.287-2.9803,10.9638c0.8001,0.0004,1.5825,0.0377,2.3587,0.1054
		c2.8684-5.604,6.4941-11.078,11.5958-15.7666c2.5966-2.3876,5.6883-4.343,8.88-6.1578c0.5757,0.0293,1.151,0.0582,1.7272,0.0867
		l-0.3398,1.3964c-1.0641,0.7515-1.184,0.8529-1.7095,1.2581c-7.5565,5.8243-12.8892,12.6988-16.7738,19.834
		c0.6072,0.1629,1.2452,0.354,1.7972,0.5611c3.1113-2.7131,6.5086-5.2164,10.1501-7.4631c0,0,2.073-1.1889,3.5842-1.9729
		c2.0978-1.0882,4.2688-2.0663,6.4869-2.9759c3.1516-1.2767,6.3942-2.3697,9.6926-3.306l1.1785,0.0157l0.7254,0.6457l-0.1534,0.9085
		c-0.7464,0.5567-0.0445,0.3503-2.2908,1.1786c-5.831,2.1786-11.0204,4.9019-16.7238,8.3288
		c-0.2783,0.1673-0.3121,0.1892-0.5906,0.3584c-0.9795,0.6029-1.9446,1.2207-2.8912,1.8591
		c-2.1044,1.4202-4.1345,2.9158-6.073,4.4843c0.4695,0.4294,0.8031,0.7738,0.8031,0.7738c0.0714,0.1032,0.1408,0.2076,0.206,0.3126
		c3.5736-1.2152,7.2273-2.2614,10.9846-3.1168c1.958-0.4458,3.9553-0.8093,5.9486-1.145l4.7542-0.5307
		c1.1285-0.078,2.2573-0.1409,3.3839-0.1892c2.4639-0.1054,4.9066-0.1018,7.3419-0.0417l1.0338,0.3595
		c0,0,0.3624,0.7507,0.3545,0.8181l-0.539,0.8232l-1.1105,0.41c-10.6919,0.7709-21.3556,3.0066-28.951,5.0183
		c-0.7403,0.1958-1.4782,0.4004-2.2138,0.6127c0.0933,1.1318-0.0722,2.3214-0.4537,3.5337
		c7.1577,0.5845,14.3852,1.0271,21.4112,2.6629l2.5548,0.8254c2.0779,0.8199,4.0639,1.7625,5.9192,2.8404l0.293,1.3144
		l-1.937,0.2775c-7.9605-2.9001-16.8827-3.552-23.6367-4.3232c-1.9698-0.2244-3.946-0.4345-5.9177-0.6581
		c-0.2988,0.5223-0.6319,1.0439-0.9936,1.5615c5.9282,1.5842,11.6158,3.4283,16.6087,6.4861l2.5146,1.9594
		c0.5135,0.4865,1.0042,0.9894,1.4698,1.5073c1.0847,1.2094,1.9795,2.5297,2.6971,3.9206l0.0255,0.8657l-0.671,0.6849l-1.0123,0.119
		l-0.8416-0.4663c-4.843-6.0209-13.0837-8.8793-18.5676-10.9269c-1.4308-0.5344-2.8864-1.0329-4.3508-1.5157
		c-0.6611,0.7193-1.3728,1.4206-2.1254,2.0952c4.7134,4.4967,8.7362,9.4697,10.4955,15.7388
		c0.4775,1.7024,0.7608,3.4554,0.9032,5.2317l-0.3576,0.9338l-1.0072,0.5424l-1.0844-0.1665
		c-0.5575-0.7116-0.5549-0.6644-0.7959-1.7046c-1.7753-7.3277-6.89-13.4049-12.5019-18.8014
		c-0.5202,0.2796-1.0531,0.5428-1.597,0.7892c3.4879,3.4396,6.4876,7.2449,8.3605,11.4895l0.069,0.16
		c1.7972,4.5557,2.1855,9.5923,1.5292,14.5964l-0.6099,0.9854c0,0-1.1352,0.4433-1.2243,0.4469l-1.1334-0.3583l-0.4365-0.9392
		c0.2876-5.97-1.0531-11.5568-4.159-16.9416c-1.6644-2.8862-3.757-5.5656-6.0916-8.0949c-0.1734,0.0351-0.7285,0.146-1.403,0.2628
		c1.5999,6.0908,2.3925,12.368,1.2642,18.7988c-0.7987,4.5487-2.7606,9.0828-5.3386,13.4177l-0.8391,0.6819l-1.1045,0.0856
		l-0.7322-0.5666c0.0127-1.3459,0.4243-1.7599,0.6862-2.3518c4.5027-10.2687,4.1415-20.4932,2.0923-29.7513
		c-0.3436-0.0154-0.6848-0.0406-1.0232-0.075c0.1333,10.5645-1.7105,21.4687-11.42,29.9621
		c-0.4246,0.3715-1.0826,0.9063-1.0826,0.9063l-1.2721,0.4594l-1.2284-0.3818l-0.4265-0.9843l0.6122-1.0029
		c9.3237-6.9579,12.0371-17.8665,12.5309-26.8172c0.0467-0.8415,0.0751-1.6819,0.0882-2.5209
		c-0.2032-0.0498-0.4052-0.1043-0.605-0.1629c-0.9445,3.9601-2.4041,7.8829-4.5756,11.649
		c-0.8533,1.4806-1.8536,2.9323-2.9718,4.3331c-0.1824,0.2284-0.3677,0.4554-0.5554,0.6805
		c-0.4376,0.5249-0.8926,1.0432-1.3629,1.552c-2.749,2.9696-6.116,5.6084-9.9939,7.5696l-1.354,0.2269l-1.0502-0.5805
		l-0.1229-1.0435c0.7184-0.7789,1.17-1.0816,1.8278-1.4586c5.0819-2.9488,8.9078-7.1699,11.7971-11.5762
		c0.429-0.6629,0.0367-0.0494,0.8558-1.3386c2.2116-3.5267,3.926-7.227,5.1071-10.9712c-0.0739-0.037-0.1464-0.0736-0.2183-0.1094
		c-1.0733,1.0769-2.1541,2.1505-3.2563,3.2112c-5.9422,5.7215-12.554,11.1948-20.8396,14.9123l-1.35,0.1428l-0.9736-0.6841
		l-0.0055-1.0816l0.9532-0.8364c7.4533-2.9909,13.7502-7.6761,19.4119-12.689c-5.2717,2.4261-10.8509,4.2877-16.5667,4.9781
		c-2.8479,0.3441-5.7821,0.3309-8.5712,0.0761l-1.1309-0.5066l-0.2899-1.0022l0.7311-0.9334
		c0.4407-0.127,0.8822-0.2544,1.3229-0.3814c2.5583,0.0256,7.6237-0.5143,11.2355-1.1614
		c6.2313-1.1497,12.2655-3.3873,17.9102-6.1545c0.0057-0.0377,0.0117-0.0761,0.0184-0.1157l2.2305-1.8075
		c-11.5741,3.8829-25.7117,5.4561-36.0035,0.683l-0.7255-0.832l0.2824-1.0696l1.1206-0.6724
		c0.4379,0.0293,0.875,0.0593,1.3125,0.0886c7.6696,3.373,17.6881,2.8584,27.113,0.9912c2.3295-0.4619,4.6521-0.9879,6.9497-1.6073
		c0.0015-0.7291,0.163-1.6124,0.2851-2.1764c-5.3361,0.0688-10.5912-0.4363-15.6294-1.6966c0,0-3.4871-1.0648-5.0159-1.7317
		c-4.3476-1.8953-8.0596-4.6523-10.276-8.1809l-0.0843-1.0725l0.8647-0.8949c0.4406-0.0652,0.8798-0.1307,1.3205-0.1962
		c0.9034,0.4978,1.2292,0.8294,1.6338,1.31c5.8023,6.7812,17.5875,9.0454,27.1614,9.5886c0.4783,0.0275,0.9569,0.0487,1.437,0.0655
		c0.0428-0.0534,0.0865-0.1069,0.1313-0.1603c-2.2224-0.627-4.3548-1.4151-6.3605-2.3807
		c-1.6665-0.8023-3.4353-1.9374-5.0487-3.1856l-0.0711-0.056c-2.7057-2.3375-4.7849-5.1234-6.1935-8.1586
		c-0.8234-1.7764-1.8973-5.3269-2.2293-8.5795l0.3798-1.2456c0,0,1.0204-0.6146,1.15-0.6398l1.2607,0.1698l0.7097,0.8543
		c0.7569,3.2541,3.7014,9.2984,7.0624,12.5956c1.7685,1.7346,3.7542,3.2943,5.9776,4.608c0.7636,0.4521,1.8281,1.0307,3.1301,1.642
		c-3.0634-3.8038-4.6339-8.582-5.0939-13.4858l-0.0086-0.1003c-0.1968-4.0059,0.3957-8.2094,1.887-12.3127l0.6771-0.7672
		c0.3461-0.0831,0.6917-0.1655,1.0378-0.2485l0.8583,0.4257c0.1954,0.7925,0.2102,0.7423,0.0222,1.7636
		C316.14,212.616,317.6906,220.578,322.2678,226.1172z"/>
</g>
<g transform="matrix(1,0,0,1,6.57029,-5.70829)">
	<path class="st4" d="M195.2788,150.0891c4.9056-2.0273,10.7687,1.4332,9.3458,6.5164c-1.4066,5.0237-7.9538,8.9015-12.9205,7.5022
		c-3.93-0.3437-4.8482-5.498-2.2289-9.2568C190.8998,152.8064,192.5311,151.2799,195.2788,150.0891z"/>
</g>
<g transform="matrix(1,0,0,1,6.57029,-5.70829)">
	<path class="st4" d="M193.3222,172.0665c4.5392-1.937,10.7255,0.9396,8.9285,5.7595c-2.2601,6.0609-9.3929,10.2559-13.5913,7.1221
		C184.6882,181.9846,187.4282,174.6991,193.3222,172.0665z"/>
</g>
<g transform="matrix(1,0,0,1,6.57029,-5.70829)">
	<path class="st4" d="M211.1984,158.369c0.777-0.3078,0.8989-0.3035,1.3171-0.3647c4.4095-0.6468,7.6627,4.2305,5.9445,9.2345
		c-1.1926,3.4737-5.8173,6.4265-9.4477,4.1526c0,0-2.6475-1.5701-2.764-3.7181c-0.0865-1.5924,0.5047-2.832,1.1887-4.8422
		c0.5937-1.7418,1.4344-3.3624,3.5871-4.3863C211.0824,158.4195,211.1402,158.3943,211.1984,158.369z"/>
</g>
<g transform="matrix(1,0,0,1,-2.07904,-6.97506)">
	<path class="st5" d="M138.6221,144.4136c6.8198-2.9981,14.0296-4.9454,21.0986-5.1269l0.4306-0.0094l0.9854,0.925l-1.1519,1.0034
		c-4.9903,0.2748-9.9763,1.4576-14.6272,3.448c-3.3757,1.4443-6.6957,4.1672-9.2683,6.5925
		c-2.1677,2.0427-3.8637,4.4788-5.0318,7.0565c0,0-1.7628,4.1954-2.2328,5.9933c-0.3891,1.4871-0.6318,2.9879-0.7491,4.4843
		c0,0-1.1643,5.611-0.283,9.8488l0.0218,0.1019c1.2585,3.6916,3.5786,6.962,6.9059,9.3522c0,0,4.6119,3.4039,9.4682,4.1111
		l0.6177,0.7752l-0.9516,0.6378c-0.2372-0.0073-0.2372-0.0073-0.4743-0.0167c-8.6395-0.4032-16.2012-5.1132-19.4403-13.2681
		c0,0-1.4289-2.9665-2.1001-5.4325c-0.4923-1.8047-0.8202-3.6608-0.9914-5.5464l-0.0107-0.1203
		c0.2928-4.3264,1.5813-8.7063,3.8384-12.7656c0,0,1.5577-2.5538,3.6209-4.7754
		C131.1007,148.6646,134.5543,146.2324,138.6221,144.4136z"/>
</g>
<g transform="matrix(1,0,0,1,-2.07904,-6.97506)">
	<path class="st5" d="M144.7074,192.6828l-0.0278,1.3574c-3.5161,3.683-6.2522,7.9585-6.6674,12.5927
		c-0.4418,4.9261,3.8564,9.2915,5.9984,13.141l0.3343,1.3715c0.7367,2.9048-2.1994-1.1609,1.5247,2.8624
		c1.0432,1.1258,2.2961,2.0577,3.4373,3.0666c0,0,2.2756,1.9335,3.8102,3.2049c6.6769,5.4834,18.2139,4.1278,26.9382,1.1356
		c0,0,2.279-0.2491,3.6381-0.7256l0.7431,0.1871l-0.5184,0.7983c-1.2696,0.7727-2.9557,2.0496-2.9557,2.0496
		c-10.0577,4.2827-21.8828,6.0198-30.3533,0.8951c-1.705-1.0308-3.2486-2.2542-4.9402-3.2764c0,0-1.8098-0.8065-3.2725-1.3711
		c-0.2821-0.1113-0.2817-0.1109-0.5633-0.2239c-1.7469-0.7149-3.4095-1.5795-4.7634-2.7841
		c-0.1507-0.1344-0.7423-0.7979-0.7423-0.7979c-0.5197-0.6391-0.8694-1.395-1.2542-2.1253c-0.8522-1.5941-0.2269-0.6198-0.36-1.163
		l-0.6725-1.9789c-2.4215-9.3505,0.0818-19.9514,9.1506-28.0798C143.6968,192.7736,144.2019,192.7282,144.7074,192.6828z"/>
</g>
<g transform="matrix(1,0,0,1,-2.07904,-6.97506)">
	<path class="st5" d="M185.6436,227.7859c0.259,0.5569,0.0227,0.0997,0.3022,0.5852c0.2843,0.4931,0.0698,0.1747,0.4366,0.6584
		c0.0809,0.1074,0.8441,0.9036,0.8047,0.8621c0.9105,0.7936-0.0372,0.1687,1.4704,1.0128c2.3432,1.3112,3.4895,1.7285,6.474,2.7798
		c8.3296,2.9348,16.5616,3.9236,24.4585,1.3034c7.0484-2.3398,18.1091-9.1639,24.4225-18.3218
		c2.2923-3.3239,4.5135-6.8186,4.5053-10.5011l-0.045-0.7722c-0.0723-0.6198,0.0013-0.1246-0.0847-0.5877
		c-0.708-3.784-3.5289-6.8537-6.1606-9.8591l-0.2675-0.3065l0.14-0.8767l0.9623,0.0317c3.8478,4.0944,8.0779,8.3484,7.4786,14.3062
		c-0.3305,3.2922-2.2066,6.462-3.9655,9.5149c0,0-1.2812,2.4203-2.6424,4.5105c-3.9698,6.0964-9.2675,11.6552-15.682,15.6366
		c-6.8451,4.2468-15.8078,6.2903-23.9302,5.0772c-3.1257-0.4666-6.0185-1.4276-8.7174-3.0367c0,0-2.4164-1.6557-3.9227-2.9091
		c-1.151-0.958-2.2516-1.9605-3.445-2.8834c0,0-3.6338-2.3226-4.6389-5.4017l0.6618-1.3651
		C184.2584,227.2435,185.5263,227.5294,185.6436,227.7859z"/>
</g>
<g transform="matrix(1,0,0,1,-2.07904,-6.97506)">
	<path class="st5" d="M246.7196,148.344c10.4845-3.142,21.543-5.8242,31.0211-2.285c4.6791,1.7473,8.4084,5.2446,9.4408,10.6287
		c0.7872,4.1055,1.3,8.2431,1.88,12.4005c0,0,1.0629,5.3524,0.5299,9.2743c-1.0034,7.3759-4.4659,14.8481-10.9686,20.5267
		c-6.8879,6.0147-17.1797,9.1198-26.7109,8.9546c-0.717-0.3711-1.4528-0.702-2.2156-0.9922l-0.8942-0.9995l1.4588-0.9961
		c0.8848-0.2778,2.0992-0.8758,2.0992-0.8758c0.1935-0.0103,0.3874-0.0206,0.5809-0.0321
		c7.9427-0.5043,16.0646-3.3517,22.346-8.4709c7.8455-6.4706,11.6955-16.3082,10.3436-25.0899c0,0-0.726-2.6762-1.3253-4.7793
		c0,0-0.4987-3.8256-0.8108-6.5934c-0.2354-1.9811-0.6147-3.9668-1.6266-5.6495c-0.0582-0.0963-0.6917-0.9503-0.7183-0.9807
		c-0.5085-0.5783,0.0188-0.0693-0.782-0.7816c-7.7612-6.9037-22.0737-4.8152-33.8805-1.7191l-0.9546-0.4623l0.6455-0.9135
		C246.3583,148.4532,246.5389,148.3988,246.7196,148.344z"/>
</g>
<g transform="matrix(1,0,0,1,-2.07904,-6.97506)">
	<path class="st5" d="M230.8304,105.9674c7.0745-3.1107,14.706-5.1834,22.0331-4.7866c1.9862,0.1079,3.9698,0.4623,5.8832,0.9392
		l0.1554,0.0394c1.4961,0.4276,2.942,0.9648,4.3286,1.5894c4.4338,1.9973,6.7,6.1516,9.9875,10.3809
		c2.9476,3.8363,4.1013,8.6785,3.618,13.9085c0,0-0.5441,2.9386-1.0098,4.3469c-1.1177,3.3774-2.7516,6.6884-4.9993,9.6908
		c-0.4525,0.6044-2.8308,3.1385-5.3251,4.7874l-1.4657,0.0518l0.1909-1.2439c0.0955-0.0925,0.1888-0.1871,0.2804-0.2821
		c1.2414-1.2996,2.1497-2.8141,2.7974-4.3893c0,0,1.5205-3.4026,2.062-5.7955c0.5393-2.3851,0.7598-4.7035,0.7795-6.7274
		c0,0,0.0441-4.805-0.5432-6.7826c-1.2242-4.1239-3.8902-7.4499-6.9984-11.1411c-0.1207-0.1425-0.1169-0.2226-0.9897-0.9323
		c-0.1948-0.158-3.2216-1.8505-5.7124-2.7858c-0.8694-0.3206-1.7606-0.5997-2.6754-0.827
		c-9.8334-2.4541-21.242,0.9687-30.587,6.4872l-0.393,0.2342l-1.4622-0.2025l0.4011-1.3492
		C224.264,109.2267,227.4886,107.4601,230.8304,105.9674z"/>
</g>
<g transform="matrix(1,0,0,1,-2.07904,-6.97506)">
	<path class="st5" d="M184.2563,94.4603c6.9889-3.0645,15.0497-4.2451,21.6204-1.9614c4.7027,1.6352,8.473,4.6051,12.3183,7.4936
		c2.145,1.6121,4.1389,3.4356,5.3336,5.7283c0.5916,1.1331,0.7547,2.9609,0.9225,4.6218l-0.8317,1.3569l-1.2594-0.6203
		c-0.0458-0.1237-0.0938-0.2478-0.1417-0.3703c-0.4769-1.1823-1.0894-2.3162-1.9344-3.2943
		c-0.5672-0.6451-0.988-1.4537-1.6151-2.0817c-2.2417-2.2439-5.1662-3.8568-7.961-5.6136
		c-5.3653-3.3731-12.0773-5.1911-19.8799-2.8397c-11.9985,3.6154-21.4466,14.0635-24.3318,24.8715
		c-1.0629,4.0905-2.3672,8.1657-2.8286,12.1676c-0.1122,1.0496-1.089,6.7424,2.3257,10.4181
		c0.7833,0.8441,1.705,1.5723,2.7028,2.2092l0.2693,1.4152c0,0-1.2987,0.5535-2.0243,0.2136
		c-5.5143-2.6291-8.6626-7.9884-8.9456-13.9316c-0.1306-2.7284,0.6566-5.7985,1.3377-8.821c0,0,0.622-2.6086,1.0817-4.4668
		c0.4298-1.6895,1.0004-3.3611,1.7105-5.004c3.8093-8.8167,11.9548-16.7842,21.5528-21.2305
		C183.8706,94.6333,184.0628,94.5455,184.2563,94.4603z"/>
</g>
<path class="st2" d="M341.352,185.3748c4.7874-2.2833,10.1013-3.4228,14.7329-3.4673c5.5644-0.0544,11.6544,1.6429,16.2337,6.0802
	c0.1066,0.1044,0.2119,0.2102,0.3172,0.3168c6.8631,7.0471,9.5911,18.2302,4.302,25.1309
	c-1.0085,1.3167-2.1989,2.4378-3.5268,3.3795c1.0719,0.8137,2.0795,1.7199,3.0033,2.7233c0,0,1.2983,1.1125,2.1972,2.0166
	c5.0605,5.141,7.7153,12.5096,5.5186,18.9369c-2.7319,7.9927-11.7391,11.9369-20.8923,11.9142
	c0.931,4.9924,0.0535,9.9712-3.6402,13.6123c-6.7783,6.6833-18.8483,7.9966-27.1124,2.9318
	c-5.325-3.2635-9.4991-8.4448-11.8791-14.1204c-4.8418,0.6177-10.0911-0.2337-14.7115-3.2271
	c-11.0225-4.3264-18.4887-18.7396-15.0099-29.0092c0.2431-0.7187,0.5308-1.4113,0.8582-2.0786
	c-0.428-0.3887-0.8463-0.7868-1.2555-1.1947c-4.0464-4.0315-7.0219-9.2645-7.7834-14.6105
	c-0.3788-2.6578-0.7179-5.8195,0.7949-8.3553c0.6811-2.0838,1.7777-3.966,3.234-5.4877c0.0163-0.0467,0.0334-0.0925,0.0505-0.1391
	c1.3873-3.7571,4.8435-6.3194,9.2225-6.3533c3.234-0.0248,6.527,1.104,9.6112,2.6339c-1.5128-6.1268-0.5783-12.5789,4.248-16.2329
	c6.3807-4.8307,16.7598-3.8846,24.1986,3.4664c0.0822,0.0818,0.1635,0.1635,0.2453,0.2461
	C337.3608,177.6016,339.784,181.3934,341.352,185.3748z M342.1486,245.467c-0.146-0.1181-0.2906-0.2372-0.4336-0.3583
	c-0.0308,0.024-0.0608,0.0471-0.0912,0.0715C341.6238,245.1802,340.9513,245.1272,342.1486,245.467z M354.4207,187.5313
	c-2.544,0.3844-4.9818,1.163-7.1713,2.0911c-1.4378,0.6096-2.8419,1.3116-4.1676,2.1198c0.0894,0.5993,0.1571,1.1969,0.2033,1.7914
	C346.442,190.7482,350.3481,188.7081,354.4207,187.5313z M373.0674,210.2737c-1.1386,1.0997-2.3813,2.0996-3.6393,3.0264
	c0,0-0.2706,0.2778-0.7046,0.6935l0.0278,0.0137C370.4361,213.0766,371.9518,211.8241,373.0674,210.2737z"/>
<g transform="matrix(1.13098,0,0.146181,1.16945,-197.878,-116.101)">
	<path class="st3" d="M440.4666,281.7366c2.5385-2.0469,5.1881-3.9286,8.0393-5.4982c3.3708-1.8565,6.9983-3.0725,10.6788-3.6329
		c0.2211,0.1753,0.6635,0.5267,0.6635,0.5267l-0.486,0.7354c-0.1978,0.0424-0.1978,0.0424-0.3949,0.086
		c-6.9763,1.608-13.2159,5.9733-18.7895,10.7175c0.2493,0.0186,0.3224,0.0443,0.4645,0.5l0.0079-0.0022l0.1615-0.1658
		c0.1924-0.0798,0.3841-0.1577,0.5765-0.2346c0.3187-0.1263,0.6385-0.2493,0.959-0.3682c4.6375-3.056,9.6446-5.4704,14.9146-6.5828
		l0.8176,0.5092l-0.4856,0.7935c-3.2384,0.7328-6.359,1.977-9.3439,3.5685c3.313-0.6834,6.6867-0.8961,10.0155-0.4656
		c2.4376,0.3148,4.8367,0.9718,7.1725,1.8232c0.1535,0.3115,0.3074,0.623,0.4609,0.9345l-0.8505,0.5099
		c-3.3584-0.951-6.8541-1.2614-10.213-1.2068c-2.3159,0.0377-2.4905,0.1384-3.1184,0.2054
		c-2.5425,0.2712-5.0607,0.8287-7.5217,1.605c0.1234,0.4744,0.2201,0.9499,0.2961,1.4312c4.0523-0.0223,8.1372,0.444,11.9445,2.0278
		c1.9385,0.8056,3.6751,2.0381,5.3363,3.373c0.0701,0.3506,0.1403,0.7006,0.2108,1.0512l-0.9522,0.228
		c-0.6481-0.4001-0.7319-0.44-1.0737-0.627c-4.9174-2.6903-10.1681-3.7387-15.363-3.8481c-0.0114,0.4103-0.0361,0.8474-0.084,1.2386
		c2.2274,1.0106,4.3638,2.2559,6.3726,3.7248c0,0,1.0858,0.8638,1.824,1.519c1.0243,0.9096,1.9894,1.8964,2.9176,2.9323
		c1.3083,1.4766,2.5127,3.0637,3.6248,4.7321l0.1717,0.7039l-0.3038,0.6288l-0.6091,0.1885
		c-0.4736-0.2716-0.2323,0.0813-1.1123-0.9963c-2.303-2.7881-4.8578-5.0286-7.9449-7.3577
		c-0.1507-0.1135-0.1702-0.1266-0.3217-0.2401c-0.5397-0.3953-1.0868-0.7778-1.644-1.1431
		c-1.2392-0.8111-2.5157-1.5553-3.825-2.2222c-0.2041,0.4103-0.3747,0.7141-0.3747,0.7141
		c-0.0554,0.0743-0.1118,0.1472-0.1694,0.2185c1.3341,1.7456,2.5717,3.5912,3.7021,5.5564c0.5894,1.0242,1.1316,2.097,1.6552,3.1761
		l1.0755,2.657c0.2243,0.6453,0.4393,1.2954,0.644,1.9488c0.4481,1.4294,0.8224,2.8792,1.1594,4.3423l-0.0716,0.7237
		c0,0-0.4278,0.4458-0.4723,0.4619l-0.6136-0.0666l-0.4353-0.5326c-2.1461-6.1047-5.2315-11.742-7.6992-15.6282
		c-0.2401-0.3792-0.4858-0.7537-0.7361-1.1248c-0.7148,0.4034-1.5064,0.6713-2.3459,0.8177
		c0.7278,4.4254,1.5576,8.8485,1.5882,13.5191l-0.1375,1.7694c-0.2074,1.4846-0.5085,2.9528-0.9164,4.3847l-0.8015,0.5783
		l-0.4772-1.0637c0.6393-5.6139-0.3172-11.107-0.8626-15.35c-0.1595-1.2376-0.3289-2.474-0.4891-3.7123
		c-0.3824-0.0168-0.7701-0.0538-1.1592-0.1091c-0.1057,4.0037-0.416,7.9444-1.6152,11.8463l-0.874,2.0945
		c-0.234,0.4543-0.4824,0.9001-0.7437,1.3353c-0.612,1.0157-1.3242,1.9524-2.1094,2.806l-0.5538,0.2815l-0.5446-0.1874
		l-0.2326-0.5637l0.1705-0.6428c3.1307-4.7248,3.7004-10.492,4.1731-14.3745c0.1234-1.0132,0.22-2.03,0.3053-3.0472
		c-0.5653-0.1709-1.1272-0.377-1.6777-0.616c-2.1692,4.179-4.7513,8.0948-8.5179,11.0667
		c-1.0229,0.8071-2.1082,1.5143-3.2306,2.1453l-0.6565,0.075l-0.5045-0.4305l-0.0602-0.6944
		c0.372-0.5498,0.3423-0.5337,0.9747-0.9963c4.4463-3.3075,7.5712-8.2105,10.1815-13.1996
		c-0.2604-0.2222-0.5124-0.4572-0.7549-0.7043c-1.6773,3.1266-3.6653,6.0765-6.1104,8.4935l-0.0923,0.09
		c-2.6572,2.4675-5.8413,4.2471-9.1655,5.3972l-0.7289-0.0586c0,0-0.4604-0.5373-0.4769-0.5889l0.0561-0.7822l0.5375-0.5479
		c3.8896-1.6658,7.2814-4.1798,10.2706-7.6783c1.6019-1.8752,3.0047-3.9407,4.274-6.1036
		c-0.0495-0.0919-0.2066-0.3873-0.3859-0.7511c-3.6762,2.8225-7.5969,5.2237-11.9131,6.5326
		c-3.0529,0.9253-6.2761,1.1566-9.466,0.9608l-0.5688-0.2877l-0.2257-0.6288l0.252-0.6087c0.8689-0.4063,1.199-0.2899,1.6207-0.3163
		c7.3088-0.4883,13.8385-3.8474,19.4854-7.9111c-0.0427-0.2086-0.0792-0.4184-0.1093-0.6299
		c-6.7839,3.3287-14.092,5.5894-21.0605,2.4429c-0.3047-0.1376-0.7509-0.3635-0.7509-0.3635l-0.4923-0.6131l0.0567-0.8459
		l0.568-0.5556l0.7404,0.0545c5.92,3.3899,13.365,1.6435,19.2062-0.8166c0.5492-0.2313,1.0948-0.4729,1.6373-0.7233
		c0.0005-0.1362,0.0046-0.2727,0.0116-0.4092c-2.6966,0.6581-5.4484,0.9993-8.2094,0.8697
		c-1.0854-0.0509-2.1746-0.1977-3.2494-0.4297c-0.1752-0.0381-0.3499-0.078-0.5238-0.1204c-0.4055-0.0981-0.8099-0.2083-1.21-0.3309
		c-2.3368-0.7171-4.556-1.9023-6.4175-3.5992l-0.3549-0.7332l0.2119-0.8016l0.6531-0.3942
		c0.6125,0.1867,0.8771,0.3617,1.2217,0.6358c2.6832,2.1073,5.9922,3.078,9.2762,3.4363c0.4934,0.0505,0.0374,0.0062,0.994,0.0959
		c2.6129,0.2269,5.261,0.1054,7.8548-0.3459c0.0124-0.0549,0.0247-0.1091,0.0366-0.1629c-0.8587-0.3053-1.717-0.6161-2.5705-0.944
		c-4.6022-1.7643-9.1476-4.0026-12.8202-7.7735l-0.3003-0.757l0.2903-0.7877l0.6959-0.336l0.6857,0.3082
		c3.0765,3.5008,7.066,5.7943,11.168,7.6106c-2.3761-2.3807-4.4356-5.1172-5.7621-8.2951c-0.6609-1.5835-1.1054-3.328-1.3716-5.0605
		l0.1519-0.8269l0.6007-0.4802l0.7142,0.1464c0.1495,0.2225,0.2998,0.4451,0.4496,0.6676c0.3781,1.5253,1.5074,4.3639,2.4814,6.3072
		c1.7023,3.3423,4.0742,6.2332,6.7275,8.7299c0.0253-0.0081,0.0509-0.0165,0.0773-0.0245l1.5083,0.7668
		c-4.2865-5.6706-7.4811-13.5726-5.9945-21.1451l0.4237-0.6863l0.7325-0.1618l0.6062,0.4579
		c0.0486,0.2687,0.0967,0.5373,0.1453,0.806c-0.9893,5.5868,0.8879,11.3709,3.5448,16.387c0.657,1.2394,1.354,2.4554,2.1075,3.6278
		c0.4698-0.2237,1.0637-0.3994,1.4458-0.5004c-0.8676-3.1439-1.353-6.4166-1.3186-9.7925c0,0,0.1477-2.3961,0.3414-3.5081
		c0.5502-3.1618,1.7533-6.2116,3.6837-8.6117l0.6778-0.3799l0.71,0.2375c0.11,0.2412,0.2201,0.4817,0.3301,0.7229
		c-0.1811,0.6892-0.3445,0.9843-0.5918,1.3719c-3.4725,5.5279-3.1126,13.2146-1.9853,19.0609
		c0.0562,0.2917,0.1162,0.5824,0.1795,0.8723c0.0412,0.0088,0.082,0.0187,0.1235,0.0286c0.061-1.5114,0.2395-3.0183,0.5524-4.5052
		c0.2592-1.235,0.7177-2.6336,1.2726-3.9744l0.0251-0.0597c1.0884-2.3239,2.5617-4.414,4.2995-6.1834
		c1.0171-1.0348,3.138-2.7639,5.1821-3.9612l0.8607-0.1581c0,0,0.5533,0.4162,0.5894,0.4854l0.0854,0.8001l-0.4407,0.6838
		c-1.9792,1.4499-5.4182,5.0557-7.0235,8.0637c-0.8442,1.5827-1.5425,3.2401-2.0457,4.9631
		c-0.1734,0.5919-0.3817,1.4012-0.5747,2.3617c1.9776-2.9872,4.8128-5.3884,7.9003-7.1699l0.0633-0.0359
		c2.5497-1.3492,5.3488-2.2906,8.2215-2.6684l0.599,0.1654c0.1069,0.1801,0.2132,0.3594,0.3202,0.5392l-0.1418,0.6402
		c-0.4803,0.3598-0.4457,0.3529-1.1327,0.5557C448.2174,273.9488,443.3283,277.3178,440.4666,281.7366z"/>
</g>
<g transform="matrix(1,0,0,1,6.57029,-5.70829)">
	<path class="st4" d="M337.8252,219.5177c2.3766,2.5405,1.6082,6.9354-1.8381,7.2368c-3.406,0.2979-7.2963-2.8222-7.5852-6.1915
		c-0.6969-2.49,2.252-4.2438,5.1628-3.5049C335.1473,217.4596,336.4605,218.1077,337.8252,219.5177z"/>
</g>
<g transform="matrix(1,0,0,1,6.57029,-5.70829)">
	<path class="st4" d="M323.894,223.3934c2.2366,2.3368,1.901,6.795-1.4704,6.8061c-4.239,0.0137-8.4593-3.3924-7.5069-6.691
		C315.817,220.3884,320.9182,220.3863,323.894,223.3934z"/>
</g>
<g transform="matrix(1,0,0,1,6.57029,-5.70829)">
	<path class="st4" d="M336.4237,231.1939c0.3681,0.4054,0.3938,0.4811,0.5278,0.7234c1.4151,2.5555-0.8249,5.6769-4.2909,5.7788
		c-2.4057,0.0706-5.2848-2.0838-4.7288-4.8354c0,0,0.3515-1.9866,1.6421-2.5538c0.9567-0.4212,1.8535-0.3446,3.2443-0.3895
		c1.2054-0.0381,2.3937,0.1032,3.5186,1.187C336.366,231.1344,336.3946,231.164,336.4237,231.1939z"/>
</g>
<g transform="matrix(1,0,0,1,-2.07904,-6.97506)">
	<path class="st5" d="M335.6502,179.1271c3.4138,3.4904,6.2732,7.4628,8.0171,11.7562l0.1053,0.262l-0.3399,0.818l-0.8814-0.4747
		c-1.321-2.9973-3.198-5.7818-5.4933-8.1751c-1.6651-1.7366-4.1021-3.1441-6.1837-4.162c-1.7533-0.8574-3.6393-1.3351-5.4903-1.4563
		c0,0-2.9801-0.1122-4.1911,0.015c-1.0021,0.1049-1.9785,0.3022-2.9236,0.5762c0,0-3.71,0.5817-6.1059,2.1009l-0.0573,0.0368
		c-1.9734,1.6245-3.4438,3.8029-4.1411,6.3956c0,0-1.0226,3.615-0.3347,6.7565l-0.3326,0.5582l-0.6113-0.4366
		c-0.0501-0.1472-0.0501-0.1472-0.0993-0.2945c-1.7478-5.3923-0.6057-11.118,3.6483-14.9876c0,0,1.4888-1.5616,2.8466-2.5427
		c0.9931-0.7187,2.056-1.3484,3.1728-1.889l0.0711-0.0342c2.7212-0.8197,5.7052-1.041,8.7161-0.5941
		c0,0,1.9263,0.3656,3.7652,1.1181C331.3054,175.4958,333.5951,177.0522,335.6502,179.1271z"/>
</g>
<g transform="matrix(1,0,0,1,-2.07904,-6.97506)">
	<path class="st5" d="M307.4505,194.0073l-0.839,0.2962c-3.0709-1.3056-6.325-1.9965-9.2632-1.181
		c-3.1231,0.8672-4.808,4.5113-6.6743,6.7146l-0.7641,0.5214c-1.6117,1.1228,0.2042-1.6168-1.4032,1.5962
		c-0.4499,0.8998-0.732,1.8839-1.0872,2.8166c0,0-0.6601,1.8424-1.0856,3.0769c-1.8214,5.3619,1.6746,12.1244,5.525,16.7846
		c0,0,0.6789,1.3398,1.2855,2.0632l0.0565,0.4991l-0.6091-0.1335c-0.7671-0.6001-1.94-1.3394-1.94-1.3394
		c-4.9492-5.1795-8.7457-12.031-7.5591-18.41c0.2385-1.2837,0.6323-2.5127,0.8685-3.7866c0,0,0.0766-1.2962,0.0852-2.3235
		c0.003-0.1991,0.003-0.1986,0.0073-0.3977c0.0347-1.2362,0.1811-2.4558,0.6074-3.5645c0.0475-0.1233,0.3181-0.6391,0.3181-0.6391
		c0.2718-0.4666,0.6549-0.8557,1.0136-1.2602c0.7812-0.8908,0.3279-0.2825,0.6301-0.4897l1.0586-0.8694
		c5.1757-3.6445,12.2558-4.5575,19.3354-0.8728C307.1616,193.4084,307.3058,193.7076,307.4505,194.0073z"/>
</g>
<g transform="matrix(1,0,0,1,-2.07904,-6.97506)">
	<path class="st5" d="M295.3749,227.2217c-0.2817,0.2877-0.0556,0.0372-0.2885,0.3206c-0.2372,0.2881-0.0912,0.083-0.3035,0.4199
		c-0.0471,0.0745-0.3587,0.7264-0.3424,0.6926c-0.2769,0.7418-0.1122,0.0163-0.2817,1.1357
		c-0.2628,1.7401-0.2543,2.5397-0.2102,4.6128c0.1241,5.7865,1.4186,11.0636,4.8499,15.3018
		c3.0623,3.7828,9.8026,8.9905,16.8775,10.7477c2.5679,0.6382,5.2245,1.1934,7.4808,0.3382l0.4636-0.2059
		c0.3634-0.1879,0.0766-0.0283,0.3407-0.1879c2.1574-1.3082,3.3885-3.7473,4.6244-6.0553l0.1258-0.235l0.5702-0.1164l0.2029,0.5976
		c-1.6228,3.3051-3.255,6.8823-7.0472,7.8908c-2.0958,0.5573-4.4732,0.1391-6.7518-0.2346c0,0-1.7803-0.2273-3.3766-0.5792
		c-4.656-1.0269-9.2889-2.9921-13.212-6.0069c-4.1856-3.2173-7.509-8.2427-8.6408-13.5044
		c-0.4358-2.0251-0.5145-4.0212-0.1511-6.048c0,0,0.4576-1.8642,0.8784-3.0777c0.3219-0.9272,0.6823-1.8338,0.973-2.779
		c0,0,0.5851-2.7648,2.2413-4.0927l0.9901,0.0907C295.3878,226.247,295.5055,227.0907,295.3749,227.2217z"/>
</g>
<g transform="matrix(1,0,0,1,-2.07904,-6.97506)">
	<path class="st5" d="M358.2047,246.3341c4.3487,5.7047,8.5475,11.8675,8.5659,18.4982c0.009,3.2733-1.2747,6.3687-4.3383,8.2453
		c-2.3364,1.431-4.7557,2.701-7.1713,4.0169c0,0-3.0375,1.8882-5.5661,2.4669c-4.7553,1.0881-10.1377,0.69-15.1229-1.9866
		c-5.2797-2.8354-9.5607-8.4306-11.6608-14.3143c0.062-0.5257,0.095-1.0535,0.0967-1.5881l0.4067-0.7795l0.9477,0.6648
		c0.3745,0.4786,1.0222,1.0851,1.0222,1.0851c0.0509,0.1165,0.1019,0.2329,0.1537,0.3489
		c2.1437,4.7549,5.766,9.0787,10.3565,11.7494c5.7805,3.317,12.7031,3.4065,17.7769,0.5492c0,0,1.4738-1.0633,2.6253-1.9164
		c0,0,2.231-1.1896,3.8564-2.0204c1.1609-0.6019,2.291-1.2928,3.0898-2.3021c0.0454-0.0578,0.4229-0.6438,0.4358-0.6669
		c0.2372-0.4456,0.0467-0.0047,0.2983-0.6605c2.4421-6.3546-2.1446-14.6503-6.7702-21.1765l0.063-0.6926l0.7093,0.1849
		C358.0544,246.1376,358.1293,246.2361,358.2047,246.3341z"/>
</g>
<g transform="matrix(1,0,0,1,-2.07904,-6.97506)">
	<path class="st5" d="M380.5258,226.8017c3.5417,3.6205,6.5754,7.8228,8.0244,12.4082c0.3925,1.2431,0.6331,2.5414,0.7825,3.8251
		l0.012,0.1044c0.083,1.0162,0.0877,2.0273,0.0248,3.0221c-0.2012,3.1805-2.2259,5.5297-4.0601,8.5227
		c-1.6725,2.6942-4.3756,4.5199-7.6948,5.4312c0,0-1.9284,0.3454-2.8997,0.3848c-2.3295,0.0946-4.7378-0.143-7.0981-0.8279
		c-0.4752-0.1382-2.5786-1.0115-4.1658-2.1604l-0.3707-0.8869l0.8073-0.1704c0.0787,0.0368,0.1579,0.0724,0.238,0.1066
		c1.0834,0.4614,2.222,0.669,3.3376,0.702c0,0,2.4382,0.1469,4.0311-0.0736c1.5872-0.22,3.0602-0.6203,4.3063-1.0757
		c0,0,2.957-1.0826,4.034-1.8997c2.2469-1.7032,3.6711-4.1064,5.2172-6.8652c0.0595-0.107,0.1096-0.1233,0.3433-0.8223
		c0.0518-0.1563,0.3908-2.4031,0.3891-4.147c-0.0038-0.6074-0.0389-1.2182-0.1104-1.8317
		c-0.7662-6.5981-5.5001-12.8045-11.0431-17.2619l-0.2341-0.1871l-0.214-0.9434l0.9207-0.0655
		C377.0102,223.5271,378.8384,225.0968,380.5258,226.8017z"/>
</g>
<g transform="matrix(1,0,0,1,-2.07904,-6.97506)">
	<path class="st5" d="M376.8269,195.5791c3.4939,3.5786,6.0793,8.25,6.1962,12.8071c0.0835,3.2622-0.8677,6.2604-1.7508,9.2859
		c-0.4935,1.6883-1.1515,3.332-2.2816,4.5944c-0.5586,0.6245-1.6416,1.1468-2.6214,1.633l-1.0248-0.1965l0.0895-0.9156
		c0.0655-0.0569,0.1306-0.1147,0.1948-0.1725c0.6151-0.5659,1.1691-1.2033,1.5735-1.9472c0.2645-0.497,0.6635-0.9417,0.9036-1.4717
		c0.8587-1.8929,1.1725-4.0593,1.6044-6.179c0.83-4.0696,0.3947-8.6061-2.8496-12.8486
		c-4.9886-6.5241-13.5789-9.9062-20.8739-9.1793c-2.7542,0.2928-5.5549,0.4341-8.116,1.0753
		c-0.6695,0.1738-4.3868,0.8891-5.8524,3.8324c-0.3369,0.6755-0.5706,1.4092-0.7311,2.1681l-0.8056,0.4918
		c0,0-0.6391-0.6686-0.5984-1.1921c0.339-3.9891,2.8988-7.158,6.4787-8.7042c1.6433-0.7102,3.7083-0.9366,5.7189-1.217
		c0,0,1.7439-0.2209,2.9896-0.3681c1.1357-0.1267,2.2927-0.1627,3.4643-0.1066c6.2873,0.3005,13.0554,3.4562,17.9986,8.3159
		C376.6317,195.3822,376.7298,195.4802,376.8269,195.5791z"/>
</g>
</svg>
